<svg width="56" height="56" viewBox="0 0 56 56" fill="none" xmlns="http://www.w3.org/2000/svg">
<g clip-path="url(#clip0_294_323)">
<path d="M28.8517 0.937256V27.2769L26.2524 31.6067H55.2047V0.937256H28.8517Z" fill="#F2BF7E"/>
<path d="M41.1291 8.89985H35.0034L38.5039 5.39941H44.6294L41.1291 8.89985Z" fill="#C5FFCA"/>
<path d="M41.1294 8.8999H35.0039V16.7751H41.1294V8.8999Z" fill="#B3B3B3"/>
<path d="M49.0047 16.7756H41.1289V8.89985L44.6293 5.39941H45.5043L49.0047 8.89985V16.7756Z" fill="#AA603B"/>
<path d="M46.379 13.2753H43.7539V16.7757H46.379V13.2753Z" fill="white"/>
<path d="M49.8799 23.7767H41.1289V27.2772H49.8799V23.7767Z" fill="#B3B3B3"/>
<path d="M21.0144 42.6406H7.83789V45.2657H21.0144V42.6406Z" fill="#C5FFCA"/>
<path d="M21.0018 30.39H7.83789V33.0151H21.0018V30.39Z" fill="#C5FFCA"/>
<path d="M19.2511 33.0151H9.62549V42.6408H19.2511V33.0151Z" fill="#F2BF7E"/>
<path d="M21.8774 36.5157H53.8181C54.543 36.5157 55.1307 37.1034 55.1307 37.8284C55.1307 38.5533 54.543 39.141 53.8181 39.141H21.8774" fill="#AA603B"/>
<path d="M21.002 27.7648H7.87549V30.3899H21.002V27.7648Z" fill="#AA603B"/>
<path d="M21.002 45.2668H7.87549V47.892H21.002V45.2668Z" fill="#AA603B"/>
<path d="M24.5024 51.3916H5.25V54.892H24.5024V51.3916Z" fill="#C5FFCA"/>
<path d="M25.3541 55.7443H4.39844V50.5402H25.3541V55.7443ZM6.10228 54.0405H23.6503V52.2441H6.10228V54.0405Z" fill="#AD7F62"/>
<path d="M21.8542 48.7437H7.02393V44.4146H21.8542V48.7437ZM8.72777 47.0399H20.1503V46.1184H8.72777V47.0399Z" fill="#AD7F62"/>
<path d="M21.8542 31.242H7.02393V26.9128H21.8542V31.242ZM8.72777 29.5382H20.1503V28.6167H8.72777V29.5382Z" fill="#AD7F62"/>
<path d="M21.0144 33.8782V32.1743H7.83789V33.8782H8.74658V41.8295H7.83789V43.5333H21.0144V41.8295H19.9921V33.8782H21.0144ZM10.4505 41.8295V33.8782H18.2882V41.8295H10.4505Z" fill="#AD7F62"/>
<path d="M53.8179 35.6637H22.718V34.6735H21.0142V40.921H22.718V39.9929H53.8179C55.0114 39.9929 55.9824 39.0219 55.9824 37.8284C55.9824 36.6349 55.0114 35.6637 53.8179 35.6637ZM53.8179 38.2891H22.718V37.3676H53.8179C54.0719 37.3676 54.2786 37.5742 54.2786 37.8284C54.2786 38.0825 54.0719 38.2891 53.8179 38.2891Z" fill="#AD7F62"/>
<path d="M23.9002 47.2897L25.105 48.4945L27.2929 46.3066L26.0881 45.1018L23.9002 47.2897Z" fill="#AD7F62"/>
<path d="M29.7605 48.7587H27.1479V50.4625H29.7605V48.7587Z" fill="#AD7F62"/>
<path d="M2.46052 46.3061L4.64844 48.494L5.85323 47.2892L3.6653 45.1013L2.46052 46.3061Z" fill="#AD7F62"/>
<path d="M2.61253 48.7587H0V50.4625H2.61253V48.7587Z" fill="#AD7F62"/>
<path d="M56.0003 32.5151H24.7412L28.057 27.0388V0.255493H56.0003V32.5151ZM27.7647 30.8113H54.2964V1.95934H29.7609V27.5146L27.7647 30.8113Z" fill="#AD7F62"/>
<path d="M49.7523 15.9309V8.55282L45.863 4.5719H44.6407H44.2828H38.1498L34.1904 8.54801V15.9309H33.2817V17.6348H50.6611V15.9309H49.7523ZM44.9758 6.27574H45.1456L48.0486 9.24691V15.9309H47.1399V12.4096H42.8234V15.9309H41.9147V9.25927L44.9758 6.27574ZM45.4359 15.9309H44.5272V14.1134H45.4359V15.9309ZM38.8577 6.27574H42.5346L40.6698 8.09323H37.048L38.8577 6.27574ZM35.8943 9.79707H40.2108V15.9309H35.8943V9.79707Z" fill="#AD7F62"/>
<path d="M46.3445 9.00195H43.7319V10.7058H46.3445V9.00195Z" fill="white"/>
<path d="M39.4156 11.6147H36.6895V13.3186H39.4156V11.6147Z" fill="white"/>
<path d="M50.6611 19.4523H33.2817V21.1561H50.6611V19.4523Z" fill="#AD7F62"/>
<path d="M38.5069 22.86H33.2817V24.5638H38.5069V22.86Z" fill="white"/>
<path d="M35.8943 26.3813H33.2817V28.0852H35.8943V26.3813Z" fill="#AD7F62"/>
<path d="M50.7321 28.1287H40.2773V22.9246H50.7321V28.1287ZM41.9812 26.4249H49.0282V24.6285H41.9812V26.4249Z" fill="#AD7F62"/>
</g>
<defs>
<clipPath id="clip0_294_323">
<rect width="56" height="56" fill="white"/>
</clipPath>
</defs>
</svg>
