<svg width="56" height="56" viewBox="0 0 56 56" fill="none" xmlns="http://www.w3.org/2000/svg">
<g clip-path="url(#clip0_371_125)">
<path d="M41.6641 56.0001H14.3363C11.8195 56.0001 9.77197 53.9526 9.77197 51.4357C9.77197 48.9189 11.8197 46.8713 14.3363 46.8713H16.9966C17.6988 43.8204 20.4369 41.5385 23.6979 41.5385H32.3025C33.1546 41.5385 33.8456 42.2294 33.8456 43.0817C33.8456 43.9339 33.1546 44.6249 32.3025 44.6249H23.6979C21.6083 44.6249 19.9083 46.3249 19.9083 48.4145C19.9083 49.2668 19.2173 49.9577 18.3651 49.9577H14.3363C13.5213 49.9577 12.8584 50.6206 12.8584 51.4357C12.8584 52.2507 13.5213 52.9136 14.3363 52.9136H41.6642C42.4791 52.9136 43.1421 52.2507 43.1421 51.4357C43.1421 50.6208 42.4791 49.9577 41.6642 49.9577H37.6354C36.7832 49.9577 36.0922 49.2667 36.0922 48.4145C36.0922 47.5622 36.7832 46.8713 37.6354 46.8713H41.6642C44.181 46.8713 46.2285 48.919 46.2285 51.4357C46.2284 53.9526 44.1809 56.0001 41.6641 56.0001Z" fill="#AD7F62"/>
<path d="M28.0002 44.4708C27.1481 44.4708 26.457 43.7799 26.457 42.9276V5.19565C26.457 4.34329 27.1481 3.65247 28.0002 3.65247C28.8523 3.65247 29.5434 4.3434 29.5434 5.19565V42.9276C29.5434 43.7799 28.8526 44.4708 28.0002 44.4708Z" fill="#AD7F62"/>
<path d="M44.6922 10.9054H11.3083C10.4562 10.9054 9.76514 10.2145 9.76514 9.36224C9.76514 8.50999 10.4562 7.81907 11.3083 7.81907H44.6923C45.5444 7.81907 46.2355 8.50999 46.2355 9.36224C46.2355 10.2145 45.5445 10.9054 44.6922 10.9054Z" fill="#AD7F62"/>
<path d="M4.29785 31.1889V31.4513C4.29785 35.3229 7.43637 38.4613 11.3078 38.4613C15.1794 38.4613 18.3178 35.3228 18.3178 31.4513V31.1889H4.29785Z" fill="#CEE8FA"/>
<path d="M11.3082 40.0045C6.59187 40.0045 2.75488 36.1676 2.75488 31.4512V31.1888C2.75488 30.3364 3.44591 29.6456 4.29805 29.6456H18.3183C19.1704 29.6456 19.8615 30.3365 19.8615 31.1888V31.4512C19.8615 36.1677 16.0245 40.0045 11.3082 40.0045ZM5.99282 32.7322C6.57087 35.1307 8.73496 36.9181 11.3082 36.9181C13.8815 36.9181 16.0456 35.1306 16.6236 32.7322H5.99282Z" fill="#AD7F62"/>
<path d="M4.62517 27.1098C4.42906 27.1098 4.22978 27.0723 4.03738 26.9929C3.24956 26.668 2.87407 25.7659 3.19892 24.978L9.8814 8.77385C10.1196 8.19613 10.6831 7.81889 11.3081 7.81889C11.9333 7.81889 12.4963 8.19591 12.7348 8.77385L19.4169 24.9779C19.7418 25.7658 19.3665 26.6679 18.5785 26.9928C17.7901 27.3177 16.8884 26.9423 16.5633 26.1545L11.308 13.41L6.05251 26.1545C5.80685 26.7498 5.23154 27.1098 4.62517 27.1098Z" fill="#AD7F62"/>
<path d="M37.6821 31.1889V31.4513C37.6821 35.3229 40.8206 38.4613 44.6921 38.4613C48.5636 38.4613 51.7023 35.3228 51.7023 31.4513V31.1889H37.6821Z" fill="#CEE8FA"/>
<path d="M44.692 40.0045C39.9757 40.0045 36.1387 36.1676 36.1387 31.4512V31.1888C36.1387 30.3364 36.8297 29.6456 37.6818 29.6456H51.7021C52.5542 29.6456 53.2452 30.3365 53.2452 31.1888V31.4512C53.2454 36.1677 49.4084 40.0045 44.692 40.0045ZM39.3767 32.7322C39.9548 35.1307 42.1189 36.9181 44.6921 36.9181C47.2654 36.9181 49.4295 35.1306 50.0075 32.7322H39.3767Z" fill="#AD7F62"/>
<path d="M51.3753 27.1098C50.7687 27.1098 50.1937 26.7501 49.9479 26.1545L44.6923 13.41L39.4368 26.1545C39.1118 26.9425 38.2094 27.3178 37.4217 26.9928C36.6338 26.6679 36.2583 25.7658 36.5832 24.9779L43.2654 8.77385C43.5038 8.19602 44.0668 7.81889 44.692 7.81889C45.317 7.81889 45.8803 8.19591 46.1187 8.77385L52.8011 24.9779C53.1259 25.7658 52.7507 26.6679 51.9626 26.9928C51.7707 27.0721 51.5713 27.1098 51.3753 27.1098Z" fill="#AD7F62"/>
<path d="M27.9999 8.84779C30.017 8.84779 31.6522 7.21262 31.6522 5.19554C31.6522 3.17846 30.017 1.54329 27.9999 1.54329C25.9828 1.54329 24.3477 3.17846 24.3477 5.19554C24.3477 7.21262 25.9828 8.84779 27.9999 8.84779Z" fill="#CEE8FA"/>
<path d="M28.0002 10.3908C25.1355 10.3908 22.8047 8.06017 22.8047 5.19531C22.8047 2.33045 25.1355 0 28.0002 0C30.865 0 33.1958 2.33067 33.1958 5.19553C33.1958 8.06039 30.8652 10.3908 28.0002 10.3908ZM28.0002 3.08634C26.8372 3.08634 25.8911 4.03244 25.8911 5.19542C25.8911 6.35841 26.8372 7.3045 28.0002 7.3045C29.1632 7.3045 30.1093 6.35841 30.1093 5.19542C30.1093 4.03255 29.1633 3.08634 28.0002 3.08634Z" fill="#AD7F62"/>
</g>
<defs>
<clipPath id="clip0_371_125">
<rect width="56" height="56" fill="white"/>
</clipPath>
</defs>
</svg>
