<svg width="56" height="56" viewBox="0 0 56 56" fill="none" xmlns="http://www.w3.org/2000/svg">
<g clip-path="url(#clip0_294_279)">
<path d="M49.3418 9.79456C49.1805 9.91159 49.0086 10.0238 48.8232 10.1287C47.7843 10.7172 46.5008 11.0413 45.2092 11.0413C43.9176 11.0413 42.634 10.7172 41.5948 10.1289C41.4096 10.024 41.2377 9.91202 41.0765 9.7951C41.0759 9.82595 41.0742 9.85646 41.0742 9.88741C41.0742 12.1711 42.9255 14.0223 45.2091 14.0223C47.4928 14.0223 49.344 12.1711 49.344 9.88741C49.344 9.85635 49.3423 9.82551 49.3418 9.79456Z" fill="#AD7F62"/>
<path d="M55.4045 20.0376C55.3909 17.3829 53.2025 15.2231 50.5477 15.2231C48.2316 15.2231 42.7808 15.2231 40.8202 15.2231C37.9714 15.2231 35.5045 17.1546 34.8211 19.9201L33.3767 25.7649L32.3618 27.3477C32.8362 27.5748 33.2423 27.9398 33.5146 28.4069L35.0323 31.0103L37.1219 27.7514C37.2468 27.5565 37.3388 27.3425 37.3944 27.1179L38.9227 20.9338C39.0573 20.3889 39.4109 19.9467 39.8761 19.6904C39.8761 39.2106 39.8683 22.2364 39.8683 53.597C39.8683 54.9241 40.9441 55.9999 42.2713 55.9999C43.5983 55.9999 44.6742 54.9241 44.6742 53.597V34.4603H45.6903V53.5971C45.6903 54.9242 46.7662 56 48.0933 56C49.4205 56 50.4963 54.9242 50.4963 53.5971C50.4963 45.7923 50.4473 25.7275 50.4443 19.9492C50.4442 19.7482 50.607 19.5852 50.8079 19.585C51.0088 19.5848 51.1768 19.7475 51.1772 19.9485C51.1772 19.9829 51.1845 20.0197 51.1772 20.059C51.2212 28.7929 51.1772 25.6769 51.1772 33.7219C51.1772 34.8886 52.1435 35.8344 53.31 35.8344C54.4767 35.8344 55.4047 34.8885 55.4047 33.7219C55.4045 25.6645 55.4483 28.7838 55.4045 20.0376Z" fill="#AD7F62"/>
<path d="M10.7902 14.0219C13.0738 14.0219 14.9251 12.1706 14.9251 9.88699C14.9251 7.60334 13.0738 5.75208 10.7902 5.75208C8.50654 5.75208 6.65527 7.60334 6.65527 9.88699C6.65527 12.1706 8.50654 14.0219 10.7902 14.0219Z" fill="#AD7F62"/>
<path d="M49.3098 1.38819C48.1455 0.493062 46.6894 0 45.2095 0C43.7292 0 42.2728 0.493171 41.1089 1.38851C39.9762 2.25968 39.2998 3.40254 39.2998 4.44543C39.2998 4.92679 39.4241 5.31791 39.6413 5.63619C39.9675 6.11427 40.5036 6.42719 41.1444 6.63216V7.41091C41.1458 8.33458 42.9646 9.53825 45.2098 9.53825C47.4547 9.53825 49.2719 8.33458 49.2735 7.41091V6.63271C49.914 6.42796 50.45 6.11558 50.7766 5.63849C50.9947 5.31977 51.1195 4.92788 51.1195 4.44532C51.1194 3.40254 50.4428 2.25968 49.3098 1.38819ZM45.2095 7.1483C44.8298 7.14819 44.405 6.53427 44.405 5.71276C44.405 4.89091 44.8298 4.2771 45.2095 4.2771C45.5895 4.2771 46.0142 4.89113 46.0142 5.71276C46.0141 6.53427 45.5893 7.1483 45.2095 7.1483Z" fill="#AD7F62"/>
<path d="M33.6741 32.3505L31.9177 29.3377C31.6914 28.9496 31.1934 28.8185 30.8055 29.0447L26.3794 31.6249C25.9829 31.0066 23.0936 26.5002 22.6221 25.7649L21.1777 19.9201C20.4942 17.1547 18.0272 15.2231 15.1786 15.2231C13.2051 15.2231 7.76175 15.2231 5.4511 15.2231C2.79625 15.2231 0.625593 17.383 0.612359 20.0377C0.568172 28.7974 0.576265 25.6766 0.576265 33.7218C0.576265 34.8885 1.52214 35.8343 2.68873 35.8343C3.85543 35.8343 4.82482 34.8884 4.82482 33.7218C4.82471 25.6883 4.78085 28.8053 4.82482 20.0589C4.82449 20.0459 4.82482 20.033 4.82482 20.0204C4.82493 19.8221 4.99741 19.6616 5.1956 19.6618C5.3939 19.6619 5.55446 19.8228 5.55424 20.021C5.55008 24.5795 5.5024 37.8766 5.5024 53.597C5.5024 54.9241 6.57821 55.9999 7.90536 55.9999C9.23251 55.9999 10.3083 54.9241 10.3083 53.597V34.4603H11.3245V53.5971C11.3245 54.9242 12.4003 56 13.7275 56C15.0546 56 16.1305 54.9242 16.1305 53.5971C16.1305 44.1507 16.1227 29.1339 16.1227 19.6906C16.5879 19.9468 16.9415 20.3891 17.0761 20.9339L18.6044 27.118C18.66 27.3424 18.7519 27.5566 18.8769 27.7515C19.3334 28.4634 22.9762 34.1448 23.4361 34.8623C23.9178 35.6133 24.8097 35.9722 25.6639 35.7865L26.2006 36.7072C26.427 37.0955 26.9251 37.2264 27.3128 37.0002L33.3809 33.4628C33.7691 33.2366 33.9004 32.7385 33.6741 32.3505ZM29.8009 34.2782C29.8286 34.3259 29.7898 34.4077 29.7251 34.4452C29.6503 34.489 29.5701 34.4765 29.5423 34.4288L29.4928 34.3437C29.0767 34.5682 28.6203 34.5515 28.4936 34.334C28.4262 34.2183 28.429 33.9887 28.5583 33.9133C28.7011 33.8301 28.9339 33.9633 29.2112 33.8608L28.89 33.3097C28.5075 33.373 28.0549 33.441 27.8013 33.0056C27.5495 32.5736 27.7484 32.1798 28.0792 31.9186L28.0235 31.8231C27.9958 31.7756 28.0245 31.6996 28.0992 31.6559C28.164 31.6183 28.2543 31.6249 28.2822 31.6723L28.3318 31.7574C28.5468 31.6414 28.9763 31.4639 29.1131 31.6985C29.1667 31.7903 29.2145 32.013 29.0649 32.1004C28.9527 32.1658 28.8246 32.0948 28.5934 32.2064L28.8829 32.7031C29.26 32.6383 29.7137 32.588 29.9812 33.0472C30.2272 33.4692 30.1037 33.8826 29.7435 34.1793L29.8009 34.2782Z" fill="#AD7F62"/>
<path d="M28.3749 32.3477C28.2396 32.4675 28.2206 32.5834 28.2683 32.6652C28.3258 32.7636 28.4501 32.7733 28.6108 32.7526L28.3749 32.3477Z" fill="#AD7F62"/>
<path d="M29.5167 33.3913C29.4513 33.279 29.3245 33.2571 29.1685 33.2707L29.4342 33.7265C29.5339 33.6318 29.5879 33.5138 29.5167 33.3913Z" fill="#AD7F62"/>
</g>
<defs>
<clipPath id="clip0_294_279">
<rect width="56" height="56" fill="white"/>
</clipPath>
</defs>
</svg>
