<svg width="24" height="24" viewBox="0 0 24 24" fill="none" xmlns="http://www.w3.org/2000/svg">
<mask id="mask0_294_148" style="mask-type:alpha" maskUnits="userSpaceOnUse" x="0" y="0" width="24" height="24">
<rect width="24" height="24" fill="#D9D9D9"/>
</mask>
<g mask="url(#mask0_294_148)">
<path d="M15.9749 11V8H12.9749V6.5H15.9749V3.5H17.4749V6.5H20.4749V8H17.4749V11H15.9749ZM19.4249 20.45C17.4916 20.45 15.5709 19.9873 13.6629 19.062C11.7542 18.1373 10.0499 16.925 8.5499 15.425C7.0499 13.925 5.83757 12.225 4.9129 10.325C3.98757 8.425 3.5249 6.5 3.5249 4.55C3.5249 4.25 3.6249 4 3.8249 3.8C4.0249 3.6 4.2749 3.5 4.5749 3.5H7.8249C8.09157 3.5 8.32057 3.579 8.5119 3.737C8.7039 3.89567 8.8249 4.1 8.8749 4.35L9.4499 7.3C9.48324 7.55 9.4749 7.775 9.4249 7.975C9.3749 8.175 9.26657 8.35 9.0999 8.5L6.8249 10.75C7.60824 12.0833 8.54557 13.2917 9.6369 14.375C10.7289 15.4583 11.9666 16.4 13.3499 17.2L15.5749 14.95C15.7416 14.7833 15.9376 14.6667 16.1629 14.6C16.3876 14.5333 16.6166 14.5167 16.8499 14.55L19.6249 15.125C19.8749 15.175 20.0792 15.2917 20.2379 15.475C20.3959 15.6583 20.4749 15.8833 20.4749 16.15V19.4C20.4749 19.7 20.3749 19.95 20.1749 20.15C19.9749 20.35 19.7249 20.45 19.4249 20.45Z" fill="#AD7F62"/>
</g>
</svg>
