<svg width="56" height="56" viewBox="0 0 56 56" fill="none" xmlns="http://www.w3.org/2000/svg">
<path d="M36.4579 28C35.364 29.1532 35.364 31.0218 36.4579 32.175L38.4374 34.262C39.5313 35.4152 41.3037 35.4152 42.3976 34.262L52.2974 23.825C53.3913 22.6718 53.3913 20.8032 52.2974 19.65L50.3179 17.563C49.224 16.4098 47.4516 16.4098 46.3577 17.563L36.4579 7.1269C37.5517 5.97369 37.5517 4.1051 36.4579 2.95189L34.4783 0.864907C33.3844 -0.288302 31.612 -0.288302 30.5181 0.864907L20.6191 11.301C19.5253 12.4542 19.5253 14.3228 20.6191 15.476L22.5987 17.563C23.6926 18.7162 25.465 18.7162 26.5589 17.563L28.5384 19.65L0.820395 48.8731C-0.273465 50.0263 -0.273465 51.8949 0.820395 53.0481L2.79997 55.1351C3.89383 56.2883 5.66626 56.2883 6.76012 55.1351L34.4791 25.913L36.4579 28ZM46.3577 21.738L48.3373 19.651L50.3169 21.738L40.4179 32.175L38.4383 30.088L40.418 28L38.4384 25.913L44.3781 19.651L46.3577 21.738ZM36.4579 11.301L42.3976 17.563L36.4579 23.825L30.5181 17.563L36.4579 11.301ZM26.559 13.389L24.5794 15.476L22.5998 13.389L32.4988 2.95201L34.4784 5.03899L32.4988 7.12702L34.4784 9.214L28.5387 15.476L26.559 13.389ZM4.77955 53.0481L2.79997 50.961L30.5181 21.738L32.4977 23.825L4.77955 53.0481Z" fill="#AD7F62"/>
<path d="M54.6002 53.0481H53.2002V47.1442C53.2002 45.5138 51.9468 44.1923 50.4002 44.1923H30.8002C29.2536 44.1923 28.0002 45.5138 28.0002 47.1442V53.0481H26.6002C25.8265 53.0481 25.2002 53.7083 25.2002 54.524C25.2002 55.3397 25.8265 56 26.6002 56H30.8002H50.4002H54.6002C55.3739 56 56.0002 55.3397 56.0002 54.524C56.0002 53.7083 55.3739 53.0481 54.6002 53.0481ZM50.4002 53.0481H30.8002V47.1442H50.4002V53.0481Z" fill="#AD7F62"/>
</svg>
