<svg width="56" height="54" viewBox="0 0 56 54" fill="none" xmlns="http://www.w3.org/2000/svg">
<g clip-path="url(#clip0_294_304)">
<path d="M20.0322 13.3876C17.605 12.6777 15.038 13.8505 14.0869 16.0284C14.6429 15.7094 15.2806 15.4993 15.9707 15.4334C18.4494 15.1966 20.6621 16.9049 20.9126 19.2492L21.1749 21.7039C22.1333 21.138 22.8903 20.2573 23.2502 19.1564C24.0461 16.7229 22.6053 14.1402 20.0322 13.3876Z" fill="#AD7F62"/>
<path d="M41.3266 9.95394C43.9413 9.95394 46.0609 7.94934 46.0609 5.47654C46.0609 3.00374 43.9413 0.999146 41.3266 0.999146C38.7119 0.999146 36.5923 3.00374 36.5923 5.47654C36.5923 7.94934 38.7119 9.95394 41.3266 9.95394Z" fill="#AD7F62"/>
<path d="M54.4238 14.8548L45.8218 12.7125C46.0071 12.7168 47.3105 12.7465 47.4854 12.7506C46.7495 11.7512 45.4643 11.2502 44.198 11.468L40.0412 12.1834C38.3482 12.4431 37.076 14.0387 37.4145 16.0118L37.8188 18.3696C37.1235 19.8407 36.2943 21.5951 35.5997 23.0647L30.0731 28.2018C29.5556 28.6829 29.3558 29.3537 29.4748 29.9818H22.0137H19.1972C19.5008 29.577 19.6491 29.0753 19.5943 28.5627L18.6225 19.4682C18.4999 18.3199 17.4153 17.4831 16.2023 17.5994C14.9882 17.7154 14.1035 18.7403 14.2261 19.8883L14.7237 24.5451L12.2298 22.8567L11.953 20.2667C10.291 19.8174 8.50314 20.0129 6.98994 20.8193C4.20973 22.3011 3.87341 24.7085 3.54998 26.0806V19.6782C3.54998 18.755 2.75866 18.0065 1.78237 18.0065C0.806094 18.0065 0 18.7551 0 19.6783C0 21.4948 0 50.2073 0 52.0236C0 52.7213 0.583078 53.2867 1.3207 53.2867C2.05844 53.2867 2.65628 52.7213 2.65628 52.0236V47.7133C2.76205 47.7233 2.18356 47.7197 11.5621 47.7197V52.0236C11.5621 52.7213 12.16 53.2867 12.8977 53.2867C13.459 53.2867 13.9386 52.9589 14.1363 52.4949C14.5108 52.872 15.0092 53.1452 15.5887 53.2454C17.0289 53.4945 18.4102 52.592 18.6736 51.2298L21.1995 38.165C21.3698 37.2841 21.0295 36.421 20.3705 35.8559H37.8007V29.9816H34.1892C39.285 25.245 38.8934 25.6213 39.0334 25.4509L39.8041 29.9444V50.7729C39.8041 52.1745 41.0055 53.3107 42.4875 53.3107C42.8887 53.3107 43.2681 53.2251 43.6099 53.0758C43.1858 52.4016 42.9415 51.6144 42.9415 50.7729V32.0529L45.0286 31.7031V50.7732C45.0286 52.1748 46.23 53.311 47.712 53.311C49.194 53.311 50.3954 52.1748 50.3954 50.7732L50.4 27.8494C49.1237 28.384 47.5954 28.3109 46.3463 27.5268C44.4013 26.3053 43.8714 23.824 45.1628 21.9846L47.8546 18.1505L44.7454 16.5791L50.4907 18.0099L46.9237 23.0902C46.2781 24.01 46.5429 25.2507 47.5156 25.8613C48.4878 26.4719 49.7999 26.2216 50.4456 25.3017L55.6464 17.8936C56.447 16.7533 55.8238 15.2033 54.4238 14.8548ZM11.5621 45.1935C2.18356 45.1935 2.76205 45.19 2.65628 45.1998V41.2484H11.5621V45.1935ZM14.2335 46.3148V41.2486H15.213L14.2335 46.3148ZM13.3932 30.7154L8.70505 25.7444L15.3412 29.9818C14.77 29.9819 13.8964 29.8717 13.3932 30.7154Z" fill="#AD7F62"/>
<path d="M34.9483 6.81112C34.8809 6.29206 34.3823 5.92247 33.8324 5.98691L30.6818 6.3534C30.133 6.41722 29.7428 6.88973 29.8103 7.4088C29.878 7.929 30.3793 8.29724 30.9263 8.23301L34.0768 7.86652C34.6257 7.8027 35.0159 7.33008 34.9483 6.81112Z" fill="#AD7F62"/>
<path d="M36.047 9.16728C35.6956 8.76355 35.0646 8.70542 34.6378 9.03777L30.9188 11.9319C30.4918 12.2643 30.4305 12.861 30.7818 13.2646C31.1334 13.6686 31.7642 13.7264 32.191 13.3941L35.9101 10.5C36.3371 10.1677 36.3983 9.571 36.047 9.16728Z" fill="#AD7F62"/>
</g>
<defs>
<clipPath id="clip0_294_304">
<rect width="56" height="52.9612" fill="white" transform="translate(0 0.674438)"/>
</clipPath>
</defs>
</svg>
