<svg width="56" height="55" viewBox="0 0 56 55" fill="none" xmlns="http://www.w3.org/2000/svg">
<path d="M11.7705 49.6727V52.4829C11.7705 53.8731 12.918 55 14.3334 55C15.7489 55 16.8963 53.873 16.8963 52.4829V49.6727H11.7705Z" fill="#AD7F62"/>
<path d="M18.0024 49.6727V52.4829C18.0024 53.8731 19.1499 55 20.5653 55C21.9808 55 23.1282 53.873 23.1282 52.4829V49.6727H18.0024Z" fill="#AD7F62"/>
<path d="M23.8917 6.84707C23.8917 6.20437 23.5165 5.64889 22.97 5.37689C23.5164 5.10501 23.8917 4.54942 23.8917 3.90672C23.8917 2.82949 22.8492 2.02598 21.7669 2.31859C21.8486 1.03598 20.813 0 19.5533 0C18.6218 0 17.8255 0.56375 17.4956 1.36232C17.1657 0.56375 16.3694 0 15.4379 0C14.1753 0 13.1427 1.03888 13.2241 2.31859C12.1437 2.02641 11.0992 2.82756 11.0992 3.90672C11.0992 4.54942 11.4745 5.1049 12.0209 5.37689C11.4746 5.64878 11.0992 6.20437 11.0992 6.84707C11.0992 7.48978 11.4745 8.04515 12.0209 8.31725C11.4745 8.58913 11.0991 9.14472 11.0991 9.78742C11.0991 10.698 11.8506 11.4361 12.7778 11.4361C13.705 11.4361 14.4565 10.698 14.4565 9.78742C14.4565 9.75777 14.4535 9.72898 14.452 9.69977C15.2436 10.4288 16.3076 10.8761 17.4783 10.8761C18.667 10.8761 19.7454 10.4151 20.5405 9.66614C20.4677 10.6443 21.2568 11.4361 22.2129 11.4361C23.1401 11.4361 23.8916 10.698 23.8916 9.78742C23.8916 9.14472 23.5164 8.58924 22.9699 8.31725C23.5164 8.04525 23.8917 7.48978 23.8917 6.84707Z" fill="#AD7F62"/>
<path d="M48.4506 33.9575H47.6596C47.6294 33.8708 44.6678 25.3381 44.6363 25.252C44.4858 24.8351 44.0508 24.5942 43.62 24.6669L37.8461 25.6409V20.202C38.8512 19.6736 39.2621 18.457 38.7604 17.4405C38.2458 16.3981 36.9682 15.9628 35.9069 16.4679L28.262 20.1077L28.2471 17.2005C28.2331 14.4771 25.9658 12.2616 23.1931 12.2616H22.6002L18.4134 15.3455L17.4888 12.2616H17.4734L16.5489 15.3455C15.0253 14.2232 13.8495 13.3572 12.3621 12.2616H11.7273C8.95432 12.2616 6.6476 14.4773 6.63382 17.2005V32.6107C6.6278 33.7691 7.53988 34.7131 8.71938 34.7188C8.72299 34.7188 8.72671 34.7188 8.73032 34.7188C9.90479 34.7188 10.9124 33.7865 10.9184 32.6317V17.2217V17.2214C10.9196 16.9982 11.1308 16.818 11.3582 16.8185C11.5854 16.8192 11.7694 17.0004 11.7694 17.2236V47.9507H23.0821H23.1286C23.1286 20.6216 23.0833 38.1702 23.0821 17.2671C23.0821 17.0329 23.2688 16.8398 23.5069 16.8275C23.745 16.8153 23.9514 16.9883 23.976 17.2212C23.976 17.2213 23.976 17.2214 23.976 17.2216L24.0078 23.4577C24.0158 24.9987 25.6626 26.0072 27.075 25.3348L36.0158 21.0782V25.9496C36.0157 25.9496 29.9426 26.9742 29.9424 26.9742C29.5857 27.0344 29.3214 27.2769 29.219 27.5764L26.202 36.2663H25.411C24.9056 36.2663 24.4958 36.6687 24.4958 37.1651C24.4958 37.5982 24.8115 38.0639 25.5012 38.0639C25.9267 40.1697 27.8178 41.7572 30.0868 41.7572C32.3559 41.7572 34.2469 40.1697 34.6723 38.0639C35.3426 38.0639 35.6777 37.6164 35.6777 37.1651C35.6777 36.6687 35.268 36.2663 34.7626 36.2663H33.9717L31.2994 28.5691L42.4114 26.6944L39.8899 33.9571H39.0989C38.5935 33.9571 38.1838 34.3595 38.1838 34.8559C38.1838 35.2889 38.4994 35.7547 39.1892 35.7547C39.6148 37.8605 41.5057 39.4481 43.7747 39.4481C46.0438 39.4481 47.9348 37.8605 48.3603 35.7547C49.0306 35.7551 49.3658 35.3075 49.3658 34.8563C49.3659 34.36 48.956 33.9575 48.4506 33.9575ZM32.0379 36.2666H28.136L30.0869 30.6471L32.0379 36.2666ZM41.8238 33.9575L43.7748 28.3379L45.7258 33.9575H41.8238Z" fill="#AD7F62"/>
</svg>
