<svg width="56" height="56" viewBox="0 0 56 56" fill="none" xmlns="http://www.w3.org/2000/svg">
<path d="M52.4998 30.3463H3.49991C2.85556 30.3463 2.3335 30.8693 2.3335 31.5136V52.5135C2.3335 53.1579 2.85556 53.6808 3.49991 53.6808H52.4998C53.144 53.6808 53.6652 53.1579 53.6652 52.5135V31.5136C53.6652 30.8693 53.144 30.3463 52.4998 30.3463Z" fill="#AD7F62"/>
<path d="M17.5 31.5136V53.6808H19.8336V31.5136C19.8336 30.8693 19.3107 30.3463 18.6664 30.3463C18.0221 30.3463 17.5 30.8693 17.5 31.5136Z" fill="#AD7F62"/>
<path d="M36.1655 31.5136V53.6808H38.5001V31.5136C38.5001 30.8693 37.9772 30.3463 37.3346 30.3463C36.6886 30.3463 36.1655 30.8693 36.1655 31.5136Z" fill="#AD7F62"/>
<path d="M24.959 17.6947C24.0814 16.9291 23.8755 14.792 23.6763 12.7258C23.4627 10.505 23.2208 7.98852 22.1297 5.99334C20.8121 3.58197 18.476 2.35572 15.1801 2.34631C11.8912 2.35572 9.555 3.58197 8.23742 5.99334C7.14614 7.98863 6.90431 10.5051 6.6908 12.725C6.49173 14.7919 6.28577 16.9291 5.40811 17.6947L4.44678 18.5321L5.36622 19.4148C5.59012 19.6302 7.76392 21.5125 15.1834 21.5125C22.6029 21.5125 24.7768 19.6302 25.0006 19.4148L25.9201 18.5321L24.959 17.6947Z" fill="#E2A437"/>
<path d="M23.8009 21.873L23.7155 21.8474C22.4679 21.5005 22.0467 21.1665 21.4913 20.9477C19.5217 20.1692 19.0091 19.6079 18.8783 19.343C18.8732 19.3336 18.8698 19.3233 18.8655 19.3139L18.8494 16.9409L15.1835 16.8862L11.5177 16.9409L11.5015 19.3139C11.4972 19.3233 11.4938 19.3336 11.4887 19.343C11.358 19.6079 10.8453 20.1692 8.87574 20.9477C8.32031 21.1665 7.89909 21.5005 6.65152 21.8474L6.56609 21.873C5.43041 22.2627 4.6665 23.3539 4.6665 24.587V28.0135H15.1835H25.7005V24.587C25.7005 23.3539 24.9366 22.2628 23.8009 21.873Z" fill="#AD7F62"/>
<path d="M21.6647 12.3276C21.6647 16.6958 17.6502 20.7153 15.1834 20.7153C12.7166 20.7153 8.70215 16.6958 8.70215 12.3276C8.70215 7.96026 11.604 5.07812 15.1834 5.07812C18.7628 5.07812 21.6647 7.96037 21.6647 12.3276Z" fill="#EAC6BB"/>
<path d="M16.0749 7.53142C16.0749 7.53142 19.3869 10.6126 23.5218 11.216C23.3142 9.41635 22.9791 7.54684 22.1297 5.99333C20.8719 3.69134 18.6845 2.46936 15.6211 2.35571L16.0749 7.53142Z" fill="#F6BB42"/>
<path d="M50.5193 21.7083L50.4287 21.6818C49.0991 21.3256 48.6513 20.9829 48.06 20.7581C45.9614 19.9584 45.4145 19.3825 45.2761 19.1107C45.271 19.1004 45.2676 19.0901 45.2624 19.0799L45.2454 16.6438L40.2706 16.5874L35.2974 16.6438L35.2804 19.0799C35.2736 19.0902 35.2701 19.1005 35.2667 19.1107C35.1266 19.3824 34.5797 19.9584 32.4829 20.7581C31.8916 20.9829 31.4421 21.3256 30.1142 21.6818L30.0236 21.7083C28.8135 22.1082 28 23.2292 28 24.4947V28.0136H40.2705H52.5411V24.4947C52.5409 23.2292 51.7275 22.1082 50.5193 21.7083Z" fill="#AD7F62"/>
<path d="M47.1749 11.9295C47.1749 16.4139 42.899 20.542 40.2706 20.542C37.644 20.542 33.3682 16.4139 33.3682 11.9295C33.3682 7.44437 36.4598 4.48523 40.2706 4.48523C44.0834 4.48523 47.1749 7.44426 47.1749 11.9295Z" fill="#EAC6BB"/>
<path d="M43.8335 4.28949C43.8335 4.28949 43.6986 3.67937 45.1289 2.82053C45.7339 2.45651 36.0594 0.732153 33.6292 6.84612C32.7167 9.14384 33.3917 12.5242 33.3917 12.5242L35.4954 8.75336C35.4954 8.75336 37.7872 9.2891 40.2702 9.2891C42.7551 9.2891 45.1306 8.75336 45.1306 8.75336L47.1745 11.9397C47.1745 11.9397 47.959 8.88067 47.0788 6.85301C46.2004 4.82599 43.8335 4.28949 43.8335 4.28949Z" fill="#434A54"/>
<path d="M54.8345 25.6799H1.16642C0.522176 25.6799 0 26.202 0 26.8462V31.5136C0 32.1578 0.522066 32.6807 1.16642 32.6807H54.8345C55.4771 32.6807 56 32.1578 56 31.5136V26.8462C56 26.202 55.4771 25.6799 54.8345 25.6799Z" fill="#A85D5D"/>
<path d="M20.3542 3.88364C19.0409 2.86849 17.3121 2.35233 15.1802 2.34631C11.8913 2.35572 9.55507 3.58197 8.23749 5.99334C7.14621 7.98863 6.90437 10.5051 6.69087 12.725C6.6703 12.9352 6.64985 13.1454 6.62939 13.3548C13.49 12.8335 18.9169 5.89676 20.3542 3.88364Z" fill="#AD7F62"/>
</svg>
