<svg width="250" height="70" viewBox="0 0 250 70" fill="none" xmlns="http://www.w3.org/2000/svg">
<path d="M9.23664 22.046L6.88965 49.6013H17.9104L15.5657 22.046H9.23664Z" fill="#AD7F62"/>
<path d="M47.8125 22.046L45.4678 49.6013H56.4885L54.1415 22.046H47.8125Z" fill="#AD7F62"/>
<path d="M60.4956 52.3572H2.88184V57.8664H60.4956V52.3572Z" fill="#AD7F62"/>
<path d="M63.3779 59.2442H0V62H63.3779V59.2442Z" fill="#AD7F62"/>
<path d="M23.4217 21.3479L28.1846 26.0373L26.1798 49.6014H37.2005L35.1911 26.035L39.954 21.3457V19.288H62.0023V14.6882L31.689 0L1.37793 14.6882V19.288H23.424L23.4217 21.3479ZM37.1959 20.1951L31.689 25.6194L26.1798 20.1951V12.3986H37.2005V20.1951H37.1959Z" fill="#AD7F62"/>
<path d="M111.057 23.9667H103.699C102.885 25.804 102.477 27.078 102.477 27.7887C102.477 28.3087 102.668 28.638 103.049 28.7767C103.448 28.9153 104.037 28.9847 104.817 28.9847V30.0247H97.6932V28.9847C98.1093 28.9327 98.4646 28.8633 98.7593 28.7767C99.0713 28.69 99.3399 28.5687 99.5653 28.4127C99.8079 28.2567 100.016 28.0573 100.189 27.8147C100.363 27.5547 100.527 27.2427 100.683 26.8787L107.521 9.74466H109.445L115.659 24.9287C116.023 25.8127 116.327 26.506 116.569 27.0087C116.829 27.5113 117.098 27.9013 117.375 28.1787C117.67 28.4387 117.999 28.6207 118.363 28.7247C118.745 28.8287 119.23 28.9067 119.819 28.9587V30.0247H109.991V28.9587C110.823 28.924 111.421 28.8373 111.785 28.6987C112.149 28.56 112.331 28.2827 112.331 27.8667C112.331 27.624 112.271 27.312 112.149 26.9307C112.028 26.5493 111.863 26.0813 111.655 25.5267L111.057 23.9667ZM104.297 22.4067H110.485L107.495 14.5287H107.391L104.297 22.4067ZM131.129 28.3607H131.025C129.829 29.6433 128.278 30.2847 126.371 30.2847C125.383 30.2847 124.473 30.1113 123.641 29.7647C122.826 29.418 122.116 28.9327 121.509 28.3087C120.92 27.6847 120.46 26.948 120.131 26.0987C119.802 25.232 119.637 24.2787 119.637 23.2387C119.637 22.1987 119.802 21.2367 120.131 20.3527C120.478 19.4687 120.937 18.706 121.509 18.0647C122.098 17.406 122.792 16.8947 123.589 16.5307C124.404 16.1667 125.279 15.9847 126.215 15.9847C127.082 15.9847 127.844 16.1147 128.503 16.3747C129.179 16.6347 129.768 17.0767 130.271 17.7007H130.375V15.4907C130.375 14.468 130.358 13.5927 130.323 12.8647C130.306 12.1193 130.271 11.634 130.219 11.4087C130.132 11.0447 129.864 10.7847 129.413 10.6287C128.98 10.4553 128.304 10.3687 127.385 10.3687V9.48466L133.963 8.44466V23.3167C133.963 24.6167 133.972 25.622 133.989 26.3327C134.024 27.026 134.076 27.5547 134.145 27.9187C134.18 28.144 134.232 28.326 134.301 28.4647C134.37 28.6033 134.474 28.716 134.613 28.8027C134.752 28.872 134.934 28.924 135.159 28.9587C135.402 28.976 135.705 28.9847 136.069 28.9847V29.9987L131.129 30.2847V28.3607ZM130.323 22.5627C130.323 21.904 130.254 21.2973 130.115 20.7427C129.976 20.1707 129.768 19.668 129.491 19.2347C129.179 18.732 128.78 18.3507 128.295 18.0907C127.81 17.8307 127.29 17.7007 126.735 17.7007C125.712 17.7007 124.932 18.1687 124.395 19.1047C123.858 20.0407 123.589 21.4013 123.589 23.1867C123.589 24.9893 123.858 26.376 124.395 27.3467C124.932 28.3173 125.704 28.8027 126.709 28.8027C127.281 28.8027 127.827 28.6553 128.347 28.3607C128.867 28.066 129.292 27.6673 129.621 27.1647C129.864 26.7833 130.037 26.3153 130.141 25.7607C130.262 25.1887 130.323 24.4607 130.323 23.5767V22.5627ZM139.022 19.5987C138.832 19.096 138.65 18.6973 138.476 18.4027C138.303 18.0907 138.121 17.8567 137.93 17.7007C137.757 17.5273 137.558 17.4147 137.332 17.3627C137.124 17.3107 136.873 17.2847 136.578 17.2847V16.2447H144.352V17.2847C143.919 17.2847 143.572 17.302 143.312 17.3367C143.07 17.3713 142.879 17.4233 142.74 17.4927C142.619 17.562 142.541 17.6573 142.506 17.7787C142.472 17.8827 142.454 18.004 142.454 18.1427C142.454 18.368 142.498 18.628 142.584 18.9227C142.671 19.2173 142.775 19.512 142.896 19.8067L145.366 26.6187H145.47L148.252 19.8327C148.374 19.538 148.469 19.278 148.538 19.0527C148.608 18.81 148.642 18.5933 148.642 18.4027C148.642 18.0213 148.512 17.744 148.252 17.5707C147.992 17.3973 147.533 17.302 146.874 17.2847V16.2447H152.62V17.2847C152.152 17.2847 151.745 17.406 151.398 17.6487C151.069 17.8913 150.722 18.4287 150.358 19.2607L145.496 30.2847H143.13L139.022 19.5987ZM160.591 15.9847C161.631 15.9847 162.61 16.1667 163.529 16.5307C164.465 16.8773 165.279 17.3627 165.973 17.9867C166.683 18.6107 167.238 19.356 167.637 20.2227C168.053 21.072 168.261 22.008 168.261 23.0307C168.261 24.088 168.053 25.0587 167.637 25.9427C167.238 26.8267 166.683 27.5893 165.973 28.2307C165.279 28.872 164.465 29.3747 163.529 29.7387C162.61 30.1027 161.631 30.2847 160.591 30.2847C159.568 30.2847 158.597 30.1113 157.679 29.7647C156.76 29.4007 155.954 28.898 155.261 28.2567C154.567 27.6153 154.021 26.8527 153.623 25.9687C153.224 25.0673 153.025 24.088 153.025 23.0307C153.025 22.008 153.224 21.0633 153.623 20.1967C154.021 19.33 154.567 18.5847 155.261 17.9607C155.954 17.3367 156.76 16.8513 157.679 16.5047C158.597 16.158 159.568 15.9847 160.591 15.9847ZM160.591 17.4927C160.071 17.4927 159.594 17.6313 159.161 17.9087C158.727 18.1687 158.355 18.5413 158.043 19.0267C157.748 19.512 157.514 20.1013 157.341 20.7947C157.185 21.4707 157.107 22.2247 157.107 23.0567C157.107 23.9233 157.185 24.7033 157.341 25.3967C157.514 26.09 157.748 26.6793 158.043 27.1647C158.355 27.65 158.719 28.0313 159.135 28.3087C159.568 28.5687 160.053 28.6987 160.591 28.6987C161.128 28.6987 161.613 28.5687 162.047 28.3087C162.497 28.0313 162.879 27.65 163.191 27.1647C163.503 26.662 163.745 26.064 163.919 25.3707C164.092 24.6773 164.179 23.906 164.179 23.0567C164.179 22.2247 164.092 21.4707 163.919 20.7947C163.745 20.1187 163.503 19.538 163.191 19.0527C162.879 18.55 162.497 18.1687 162.047 17.9087C161.613 17.6313 161.128 17.4927 160.591 17.4927ZM182.955 27.8667C182.296 28.5947 181.473 29.158 180.485 29.5567C179.514 29.9553 178.457 30.1547 177.313 30.1547C176.255 30.1547 175.293 29.99 174.427 29.6607C173.56 29.314 172.815 28.8373 172.191 28.2307C171.567 27.624 171.081 26.896 170.735 26.0467C170.405 25.18 170.241 24.2267 170.241 23.1867C170.241 22.112 170.423 21.1327 170.787 20.2487C171.151 19.3647 171.662 18.6107 172.321 17.9867C172.979 17.3453 173.768 16.8513 174.687 16.5047C175.605 16.158 176.619 15.9847 177.729 15.9847C178.509 15.9847 179.228 16.0627 179.887 16.2187C180.563 16.3747 181.135 16.5913 181.603 16.8687C182.088 17.146 182.469 17.4753 182.747 17.8567C183.024 18.2207 183.163 18.6193 183.163 19.0527C183.163 19.5553 183.015 19.954 182.721 20.2487C182.443 20.5433 182.062 20.6907 181.577 20.6907C181.178 20.6907 180.823 20.5867 180.511 20.3787C180.216 20.1707 179.921 19.8327 179.627 19.3647C179.367 18.9487 179.141 18.6193 178.951 18.3767C178.777 18.134 178.613 17.952 178.457 17.8307C178.301 17.692 178.145 17.6053 177.989 17.5707C177.833 17.5187 177.642 17.4927 177.417 17.4927C176.411 17.4927 175.631 17.9607 175.077 18.8967C174.522 19.8327 174.245 21.1413 174.245 22.8227C174.245 24.6253 174.574 26.012 175.233 26.9827C175.909 27.9533 176.871 28.4387 178.119 28.4387C178.829 28.4387 179.54 28.3087 180.251 28.0487C180.961 27.7713 181.637 27.3813 182.279 26.8787L182.955 27.8667ZM192.846 22.6147C191.39 23.2733 190.29 23.8887 189.544 24.4607C188.816 25.0153 188.452 25.596 188.452 26.2027C188.452 26.7053 188.591 27.104 188.868 27.3987C189.146 27.6933 189.492 27.8407 189.908 27.8407C190.324 27.8407 190.714 27.7713 191.078 27.6327C191.442 27.4767 191.754 27.2773 192.014 27.0347C192.274 26.792 192.474 26.506 192.612 26.1767C192.768 25.83 192.846 25.466 192.846 25.0847V22.6147ZM192.846 21.2367V20.1447C192.846 19.1393 192.664 18.4113 192.3 17.9607C191.954 17.4927 191.408 17.2587 190.662 17.2587C190.16 17.2587 189.778 17.3973 189.518 17.6747C189.258 17.9347 189.016 18.3767 188.79 19.0007C188.634 19.434 188.409 19.772 188.114 20.0147C187.837 20.2573 187.447 20.3787 186.944 20.3787C186.459 20.3787 186.086 20.2313 185.826 19.9367C185.566 19.642 185.436 19.226 185.436 18.6887C185.436 17.8567 185.887 17.198 186.788 16.7127C187.707 16.2273 189.085 15.9847 190.922 15.9847C192.864 15.9847 194.25 16.34 195.082 17.0507C195.914 17.744 196.33 18.914 196.33 20.5607V26.2547C196.33 27.728 196.625 28.4647 197.214 28.4647C197.544 28.4647 197.847 28.352 198.124 28.1267L198.514 28.8807C198.272 29.314 197.89 29.6607 197.37 29.9207C196.868 30.1633 196.296 30.2847 195.654 30.2847C194.857 30.2847 194.25 30.042 193.834 29.5567C193.418 29.0713 193.21 28.3867 193.21 27.5027H193.08C192.578 28.404 191.928 29.0887 191.13 29.5567C190.333 30.0247 189.423 30.2587 188.4 30.2587C187.308 30.2587 186.433 29.9553 185.774 29.3487C185.116 28.7247 184.786 27.9187 184.786 26.9307C184.786 26.168 185.124 25.4573 185.8 24.7987C186.476 24.1227 187.603 23.464 189.18 22.8227L192.846 21.2367ZM199.482 17.6747V16.5047C200.522 16.21 201.389 15.768 202.082 15.1787C202.793 14.572 203.321 13.8787 203.668 13.0987H204.994V16.2447H207.984V17.6747H204.994V25.6567C204.994 26.7313 205.107 27.494 205.332 27.9447C205.575 28.3953 205.973 28.6207 206.528 28.6207C207.204 28.6207 207.715 28.3087 208.062 27.6847L208.608 28.4387C208.123 29.6693 206.979 30.2847 205.176 30.2847C203.98 30.2847 203.044 30.0073 202.368 29.4527C201.709 28.898 201.38 28.118 201.38 27.1127V17.6747H199.482ZM222.8 27.6067C221.222 29.392 219.255 30.2847 216.898 30.2847C215.823 30.2847 214.844 30.12 213.96 29.7907C213.093 29.444 212.348 28.9673 211.724 28.3607C211.1 27.7367 210.614 27 210.268 26.1507C209.921 25.3013 209.748 24.3567 209.748 23.3167C209.748 22.242 209.93 21.2627 210.294 20.3787C210.658 19.4773 211.169 18.706 211.828 18.0647C212.504 17.406 213.292 16.8947 214.194 16.5307C215.112 16.1667 216.118 15.9847 217.21 15.9847C219.047 15.9847 220.477 16.4787 221.5 17.4667C222.522 18.4547 223.034 19.8413 223.034 21.6267C223.034 21.904 222.99 22.0773 222.904 22.1467C222.817 22.1987 222.574 22.2247 222.176 22.2247H213.804C213.734 22.3807 213.7 22.6667 213.7 23.0827C213.7 24.7813 214.064 26.1247 214.792 27.1127C215.537 28.1007 216.542 28.5947 217.808 28.5947C218.536 28.5947 219.255 28.43 219.966 28.1007C220.694 27.7713 221.396 27.3033 222.072 26.6967L222.8 27.6067ZM217.756 20.7687C218.449 20.7687 218.891 20.734 219.082 20.6647C219.29 20.578 219.394 20.3873 219.394 20.0927C219.394 19.33 219.177 18.706 218.744 18.2207C218.31 17.7353 217.764 17.4927 217.106 17.4927C216.36 17.4927 215.693 17.8047 215.104 18.4287C214.532 19.0353 214.159 19.8153 213.986 20.7687H217.756Z" fill="white"/>
<path d="M95.6863 62.0247H77.7723V60.9847C78.3443 60.9673 78.8123 60.9153 79.1763 60.8287C79.5403 60.742 79.8176 60.5947 80.0083 60.3867C80.199 60.1787 80.329 59.884 80.3983 59.5027C80.4676 59.1213 80.5023 58.6273 80.5023 58.0207V46.0087C80.5023 45.402 80.4676 44.9167 80.3983 44.5527C80.3463 44.1713 80.2336 43.8767 80.0603 43.6687C79.887 43.4433 79.6356 43.296 79.3063 43.2267C78.9943 43.14 78.5783 43.0793 78.0583 43.0447V42.0047H87.0283V43.0447C86.439 43.062 85.9623 43.114 85.5983 43.2007C85.2516 43.2873 84.983 43.4433 84.7923 43.6687C84.6016 43.894 84.4716 44.206 84.4023 44.6047C84.3503 45.0033 84.3243 45.532 84.3243 46.1907V57.0847C84.3243 57.8127 84.3936 58.4107 84.5323 58.8787C84.6883 59.3293 84.9483 59.6847 85.3123 59.9447C85.6763 60.1873 86.1616 60.3607 86.7683 60.4647C87.375 60.5513 88.129 60.5947 89.0303 60.5947C90.0356 60.5947 90.8763 60.534 91.5523 60.4127C92.2283 60.2913 92.7916 60.066 93.2423 59.7367C93.7103 59.39 94.083 58.9307 94.3603 58.3587C94.6376 57.7867 94.8716 57.0413 95.0623 56.1227H96.1023L95.6863 62.0247ZM105.433 54.6147C103.977 55.2733 102.877 55.8887 102.131 56.4607C101.403 57.0153 101.039 57.596 101.039 58.2027C101.039 58.7053 101.178 59.104 101.455 59.3987C101.733 59.6933 102.079 59.8407 102.495 59.8407C102.911 59.8407 103.301 59.7713 103.665 59.6327C104.029 59.4767 104.341 59.2773 104.601 59.0347C104.861 58.792 105.061 58.506 105.199 58.1767C105.355 57.83 105.433 57.466 105.433 57.0847V54.6147ZM105.433 53.2367V52.1447C105.433 51.1393 105.251 50.4113 104.887 49.9607C104.541 49.4927 103.995 49.2587 103.249 49.2587C102.747 49.2587 102.365 49.3973 102.105 49.6747C101.845 49.9347 101.603 50.3767 101.377 51.0007C101.221 51.434 100.996 51.772 100.701 52.0147C100.424 52.2573 100.034 52.3787 99.5313 52.3787C99.0459 52.3787 98.6733 52.2313 98.4133 51.9367C98.1533 51.642 98.0233 51.226 98.0233 50.6887C98.0233 49.8567 98.4739 49.198 99.3753 48.7127C100.294 48.2273 101.672 47.9847 103.509 47.9847C105.451 47.9847 106.837 48.34 107.669 49.0507C108.501 49.744 108.917 50.914 108.917 52.5607V58.2547C108.917 59.728 109.212 60.4647 109.801 60.4647C110.131 60.4647 110.434 60.352 110.711 60.1267L111.101 60.8807C110.859 61.314 110.477 61.6607 109.957 61.9207C109.455 62.1633 108.883 62.2847 108.241 62.2847C107.444 62.2847 106.837 62.042 106.421 61.5567C106.005 61.0713 105.797 60.3867 105.797 59.5027H105.667C105.165 60.404 104.515 61.0887 103.717 61.5567C102.92 62.0247 102.01 62.2587 100.987 62.2587C99.8953 62.2587 99.0199 61.9553 98.3613 61.3487C97.7026 60.7247 97.3733 59.9187 97.3733 58.9307C97.3733 58.168 97.7113 57.4573 98.3873 56.7987C99.0633 56.1227 100.19 55.464 101.767 54.8227L105.433 53.2367ZM118.948 62.2847H116.998L113.436 51.5987C113.158 50.7667 112.838 50.186 112.474 49.8567C112.11 49.51 111.624 49.3193 111.018 49.2847V48.2447H118.454V49.2847C117.83 49.302 117.396 49.3973 117.154 49.5707C116.911 49.7267 116.79 50.004 116.79 50.4027C116.79 50.5933 116.816 50.8013 116.868 51.0267C116.92 51.252 116.989 51.512 117.076 51.8067L118.714 57.8907H118.818L122.458 48.2447H124.59L127.32 57.8907H127.45L129.53 52.5087C129.703 52.0753 129.824 51.7027 129.894 51.3907C129.963 51.0613 129.998 50.7753 129.998 50.5327C129.998 50.082 129.85 49.7613 129.556 49.5707C129.261 49.38 128.862 49.2847 128.36 49.2847V48.2447H133.95V49.2847C133.638 49.2847 133.378 49.3193 133.17 49.3887C132.962 49.458 132.754 49.6227 132.546 49.8827C132.338 50.1427 132.112 50.5413 131.87 51.0787C131.627 51.616 131.324 52.3527 130.96 53.2887L127.372 62.2847H125.318L122.562 53.0547H122.458L118.948 62.2847ZM148.498 57.3647H142.838C142.211 58.778 141.898 59.758 141.898 60.3047C141.898 60.7047 142.044 60.958 142.338 61.0647C142.644 61.1713 143.098 61.2247 143.698 61.2247V62.0247H138.218V61.2247C138.538 61.1847 138.811 61.1313 139.038 61.0647C139.278 60.998 139.484 60.9047 139.658 60.7847C139.844 60.6647 140.004 60.5113 140.138 60.3247C140.271 60.1247 140.398 59.8847 140.518 59.6047L145.778 46.4247H147.258L152.038 58.1047C152.318 58.7847 152.551 59.318 152.738 59.7047C152.938 60.0913 153.144 60.3913 153.358 60.6047C153.584 60.8047 153.838 60.9447 154.118 61.0247C154.411 61.1047 154.784 61.1647 155.238 61.2047V62.0247H147.678V61.2047C148.318 61.178 148.778 61.1113 149.058 61.0047C149.338 60.898 149.478 60.6847 149.478 60.3647C149.478 60.178 149.431 59.938 149.338 59.6447C149.244 59.3513 149.118 58.9913 148.958 58.5647L148.498 57.3647ZM143.298 56.1647H148.058L145.758 50.1047H145.678L143.298 56.1647ZM156.349 62.0247H155.729V58.3847H156.569C156.796 59.3447 157.123 60.0447 157.549 60.4847C157.976 60.9247 158.529 61.1447 159.209 61.1447C159.703 61.1447 160.083 61.0447 160.349 60.8447C160.629 60.6313 160.769 60.3447 160.769 59.9847C160.769 59.6113 160.603 59.2513 160.269 58.9047C159.936 58.5447 159.396 58.1647 158.649 57.7647C157.636 57.218 156.909 56.678 156.469 56.1447C156.029 55.598 155.809 54.9847 155.809 54.3047C155.809 53.8647 155.889 53.458 156.049 53.0847C156.223 52.698 156.449 52.3647 156.729 52.0847C157.023 51.8047 157.369 51.5913 157.769 51.4447C158.169 51.2847 158.603 51.2047 159.069 51.2047C159.483 51.2047 159.889 51.2647 160.289 51.3847C160.703 51.5047 161.063 51.6713 161.369 51.8847L161.729 51.4047H162.249V54.4247H161.469C161.163 53.6647 160.843 53.118 160.509 52.7847C160.189 52.4513 159.796 52.2847 159.329 52.2847C158.956 52.2847 158.656 52.3847 158.429 52.5847C158.216 52.7847 158.109 53.0513 158.109 53.3847C158.109 53.758 158.269 54.1113 158.589 54.4447C158.923 54.778 159.469 55.1447 160.229 55.5447C160.763 55.838 161.223 56.1247 161.609 56.4047C161.996 56.6847 162.309 56.9713 162.549 57.2647C162.789 57.5447 162.963 57.8447 163.069 58.1647C163.189 58.4713 163.249 58.8047 163.249 59.1647C163.249 59.6313 163.163 60.0513 162.989 60.4247C162.816 60.798 162.569 61.118 162.249 61.3847C161.929 61.6513 161.543 61.858 161.089 62.0047C160.649 62.1513 160.156 62.2247 159.609 62.2247C159.036 62.2247 158.503 62.1513 158.009 62.0047C157.516 61.8447 157.109 61.618 156.789 61.3247L156.349 62.0247ZM165.666 62.0247H165.046V58.3847H165.886C166.112 59.3447 166.439 60.0447 166.866 60.4847C167.292 60.9247 167.846 61.1447 168.526 61.1447C169.019 61.1447 169.399 61.0447 169.666 60.8447C169.946 60.6313 170.086 60.3447 170.086 59.9847C170.086 59.6113 169.919 59.2513 169.586 58.9047C169.252 58.5447 168.712 58.1647 167.966 57.7647C166.952 57.218 166.226 56.678 165.786 56.1447C165.346 55.598 165.126 54.9847 165.126 54.3047C165.126 53.8647 165.206 53.458 165.366 53.0847C165.539 52.698 165.766 52.3647 166.046 52.0847C166.339 51.8047 166.686 51.5913 167.086 51.4447C167.486 51.2847 167.919 51.2047 168.386 51.2047C168.799 51.2047 169.206 51.2647 169.606 51.3847C170.019 51.5047 170.379 51.6713 170.686 51.8847L171.046 51.4047H171.566V54.4247H170.786C170.479 53.6647 170.159 53.118 169.826 52.7847C169.506 52.4513 169.112 52.2847 168.646 52.2847C168.272 52.2847 167.972 52.3847 167.746 52.5847C167.532 52.7847 167.426 53.0513 167.426 53.3847C167.426 53.758 167.586 54.1113 167.906 54.4447C168.239 54.778 168.786 55.1447 169.546 55.5447C170.079 55.838 170.539 56.1247 170.926 56.4047C171.312 56.6847 171.626 56.9713 171.866 57.2647C172.106 57.5447 172.279 57.8447 172.386 58.1647C172.506 58.4713 172.566 58.8047 172.566 59.1647C172.566 59.6313 172.479 60.0513 172.306 60.4247C172.132 60.798 171.886 61.118 171.566 61.3847C171.246 61.6513 170.859 61.858 170.406 62.0047C169.966 62.1513 169.472 62.2247 168.926 62.2247C168.352 62.2247 167.819 62.1513 167.326 62.0047C166.832 61.8447 166.426 61.618 166.106 61.3247L165.666 62.0247ZM179.842 51.2247C180.642 51.2247 181.396 51.3647 182.102 51.6447C182.822 51.9113 183.449 52.2847 183.982 52.7647C184.529 53.2447 184.956 53.818 185.262 54.4847C185.582 55.138 185.742 55.858 185.742 56.6447C185.742 57.458 185.582 58.2047 185.262 58.8847C184.956 59.5647 184.529 60.1513 183.982 60.6447C183.449 61.138 182.822 61.5247 182.102 61.8047C181.396 62.0847 180.642 62.2247 179.842 62.2247C179.056 62.2247 178.309 62.0913 177.602 61.8247C176.896 61.5447 176.276 61.158 175.742 60.6647C175.209 60.1713 174.789 59.5847 174.482 58.9047C174.176 58.2113 174.022 57.458 174.022 56.6447C174.022 55.858 174.176 55.1313 174.482 54.4647C174.789 53.798 175.209 53.2247 175.742 52.7447C176.276 52.2647 176.896 51.8913 177.602 51.6247C178.309 51.358 179.056 51.2247 179.842 51.2247ZM179.842 52.3847C179.442 52.3847 179.076 52.4913 178.742 52.7047C178.409 52.9047 178.122 53.1913 177.882 53.5647C177.656 53.938 177.476 54.3913 177.342 54.9247C177.222 55.4447 177.162 56.0247 177.162 56.6647C177.162 57.3313 177.222 57.9313 177.342 58.4647C177.476 58.998 177.656 59.4513 177.882 59.8247C178.122 60.198 178.402 60.4913 178.722 60.7047C179.056 60.9047 179.429 61.0047 179.842 61.0047C180.256 61.0047 180.629 60.9047 180.962 60.7047C181.309 60.4913 181.602 60.198 181.842 59.8247C182.082 59.438 182.269 58.978 182.402 58.4447C182.536 57.9113 182.602 57.318 182.602 56.6647C182.602 56.0247 182.536 55.4447 182.402 54.9247C182.269 54.4047 182.082 53.958 181.842 53.5847C181.602 53.198 181.309 52.9047 180.962 52.7047C180.629 52.4913 180.256 52.3847 179.842 52.3847ZM197.045 60.3647C196.539 60.9247 195.905 61.358 195.145 61.6647C194.399 61.9713 193.585 62.1247 192.705 62.1247C191.892 62.1247 191.152 61.998 190.485 61.7447C189.819 61.478 189.245 61.1113 188.765 60.6447C188.285 60.178 187.912 59.618 187.645 58.9647C187.392 58.298 187.265 57.5647 187.265 56.7647C187.265 55.938 187.405 55.1847 187.685 54.5047C187.965 53.8247 188.359 53.2447 188.865 52.7647C189.372 52.2713 189.979 51.8913 190.685 51.6247C191.392 51.358 192.172 51.2247 193.025 51.2247C193.625 51.2247 194.179 51.2847 194.685 51.4047C195.205 51.5247 195.645 51.6913 196.005 51.9047C196.379 52.118 196.672 52.3713 196.885 52.6647C197.099 52.9447 197.205 53.2513 197.205 53.5847C197.205 53.9713 197.092 54.278 196.865 54.5047C196.652 54.7313 196.359 54.8447 195.985 54.8447C195.679 54.8447 195.405 54.7647 195.165 54.6047C194.939 54.4447 194.712 54.1847 194.485 53.8247C194.285 53.5047 194.112 53.2513 193.965 53.0647C193.832 52.878 193.705 52.738 193.585 52.6447C193.465 52.538 193.345 52.4713 193.225 52.4447C193.105 52.4047 192.959 52.3847 192.785 52.3847C192.012 52.3847 191.412 52.7447 190.985 53.4647C190.559 54.1847 190.345 55.1913 190.345 56.4847C190.345 57.8713 190.599 58.938 191.105 59.6847C191.625 60.4313 192.365 60.8047 193.325 60.8047C193.872 60.8047 194.419 60.7047 194.965 60.5047C195.512 60.2913 196.032 59.9913 196.525 59.6047L197.045 60.3647ZM202.914 58.7447C202.914 59.278 202.934 59.7047 202.974 60.0247C203.014 60.3447 203.094 60.5913 203.214 60.7647C203.334 60.938 203.508 61.058 203.734 61.1247C203.961 61.178 204.268 61.2113 204.654 61.2247V62.0247H198.354V61.2247C198.728 61.2113 199.028 61.1713 199.254 61.1047C199.494 61.0247 199.674 60.9047 199.794 60.7447C199.928 60.5713 200.014 60.338 200.054 60.0447C200.108 59.738 200.134 59.3513 200.134 58.8847V56.4247C200.134 55.6513 200.121 55.018 200.094 54.5247C200.068 54.018 200.034 53.6713 199.994 53.4847C199.928 53.1513 199.774 52.9313 199.534 52.8247C199.308 52.718 198.888 52.6647 198.274 52.6647V51.9847L202.914 51.2247V58.7447ZM199.974 46.9847C199.974 46.5447 200.121 46.178 200.414 45.8847C200.721 45.578 201.088 45.4247 201.514 45.4247C201.954 45.4247 202.321 45.578 202.614 45.8847C202.921 46.178 203.074 46.5447 203.074 46.9847C203.074 47.4113 202.921 47.778 202.614 48.0847C202.321 48.378 201.954 48.5247 201.514 48.5247C201.088 48.5247 200.721 48.378 200.414 48.0847C200.121 47.778 199.974 47.4113 199.974 46.9847ZM211.881 56.3247C210.761 56.8313 209.914 57.3047 209.341 57.7447C208.781 58.1713 208.501 58.618 208.501 59.0847C208.501 59.4713 208.608 59.778 208.821 60.0047C209.034 60.2313 209.301 60.3447 209.621 60.3447C209.941 60.3447 210.241 60.2913 210.521 60.1847C210.801 60.0647 211.041 59.9113 211.241 59.7247C211.441 59.538 211.594 59.318 211.701 59.0647C211.821 58.798 211.881 58.518 211.881 58.2247V56.3247ZM211.881 55.2647V54.4247C211.881 53.6513 211.741 53.0913 211.461 52.7447C211.194 52.3847 210.774 52.2047 210.201 52.2047C209.814 52.2047 209.521 52.3113 209.321 52.5247C209.121 52.7247 208.934 53.0647 208.761 53.5447C208.641 53.878 208.468 54.138 208.241 54.3247C208.028 54.5113 207.728 54.6047 207.341 54.6047C206.968 54.6047 206.681 54.4913 206.481 54.2647C206.281 54.038 206.181 53.718 206.181 53.3047C206.181 52.6647 206.528 52.158 207.221 51.7847C207.928 51.4113 208.988 51.2247 210.401 51.2247C211.894 51.2247 212.961 51.498 213.601 52.0447C214.241 52.578 214.561 53.478 214.561 54.7447V59.1247C214.561 60.258 214.788 60.8247 215.241 60.8247C215.494 60.8247 215.728 60.738 215.941 60.5647L216.241 61.1447C216.054 61.478 215.761 61.7447 215.361 61.9447C214.974 62.1313 214.534 62.2247 214.041 62.2247C213.428 62.2247 212.961 62.038 212.641 61.6647C212.321 61.2913 212.161 60.7647 212.161 60.0847H212.061C211.674 60.778 211.174 61.3047 210.561 61.6647C209.948 62.0247 209.248 62.2047 208.461 62.2047C207.621 62.2047 206.948 61.9713 206.441 61.5047C205.934 61.0247 205.681 60.4047 205.681 59.6447C205.681 59.058 205.941 58.5113 206.461 58.0047C206.981 57.4847 207.848 56.978 209.061 56.4847L211.881 55.2647ZM216.985 52.5247V51.6247C217.785 51.398 218.452 51.058 218.985 50.6047C219.532 50.138 219.939 49.6047 220.205 49.0047H221.225V51.4247H223.525V52.5247H221.225V58.6647C221.225 59.4913 221.312 60.078 221.485 60.4247C221.672 60.7713 221.979 60.9447 222.405 60.9447C222.925 60.9447 223.319 60.7047 223.585 60.2247L224.005 60.8047C223.632 61.7513 222.752 62.2247 221.365 62.2247C220.445 62.2247 219.725 62.0113 219.205 61.5847C218.699 61.158 218.445 60.558 218.445 59.7847V52.5247H216.985ZM234.922 60.1647C233.709 61.538 232.195 62.2247 230.382 62.2247C229.555 62.2247 228.802 62.098 228.122 61.8447C227.455 61.578 226.882 61.2113 226.402 60.7447C225.922 60.2647 225.549 59.698 225.282 59.0447C225.015 58.3913 224.882 57.6647 224.882 56.8647C224.882 56.038 225.022 55.2847 225.302 54.6047C225.582 53.9113 225.975 53.318 226.482 52.8247C227.002 52.318 227.609 51.9247 228.302 51.6447C229.009 51.3647 229.782 51.2247 230.622 51.2247C232.035 51.2247 233.135 51.6047 233.922 52.3647C234.709 53.1247 235.102 54.1913 235.102 55.5647C235.102 55.778 235.069 55.9113 235.002 55.9647C234.935 56.0047 234.749 56.0247 234.442 56.0247H228.002C227.949 56.1447 227.922 56.3647 227.922 56.6847C227.922 57.9913 228.202 59.0247 228.762 59.7847C229.335 60.5447 230.109 60.9247 231.082 60.9247C231.642 60.9247 232.195 60.798 232.742 60.5447C233.302 60.2913 233.842 59.9313 234.362 59.4647L234.922 60.1647ZM231.042 54.9047C231.575 54.9047 231.915 54.878 232.062 54.8247C232.222 54.758 232.302 54.6113 232.302 54.3847C232.302 53.798 232.135 53.318 231.802 52.9447C231.469 52.5713 231.049 52.3847 230.542 52.3847C229.969 52.3847 229.455 52.6247 229.002 53.1047C228.562 53.5713 228.275 54.1713 228.142 54.9047H231.042ZM237.521 62.0247H236.901V58.3847H237.741C237.968 59.3447 238.295 60.0447 238.721 60.4847C239.148 60.9247 239.701 61.1447 240.381 61.1447C240.875 61.1447 241.255 61.0447 241.521 60.8447C241.801 60.6313 241.941 60.3447 241.941 59.9847C241.941 59.6113 241.775 59.2513 241.441 58.9047C241.108 58.5447 240.568 58.1647 239.821 57.7647C238.808 57.218 238.081 56.678 237.641 56.1447C237.201 55.598 236.981 54.9847 236.981 54.3047C236.981 53.8647 237.061 53.458 237.221 53.0847C237.395 52.698 237.621 52.3647 237.901 52.0847C238.195 51.8047 238.541 51.5913 238.941 51.4447C239.341 51.2847 239.775 51.2047 240.241 51.2047C240.655 51.2047 241.061 51.2647 241.461 51.3847C241.875 51.5047 242.235 51.6713 242.541 51.8847L242.901 51.4047H243.421V54.4247H242.641C242.335 53.6647 242.015 53.118 241.681 52.7847C241.361 52.4513 240.968 52.2847 240.501 52.2847C240.128 52.2847 239.828 52.3847 239.601 52.5847C239.388 52.7847 239.281 53.0513 239.281 53.3847C239.281 53.758 239.441 54.1113 239.761 54.4447C240.095 54.778 240.641 55.1447 241.401 55.5447C241.935 55.838 242.395 56.1247 242.781 56.4047C243.168 56.6847 243.481 56.9713 243.721 57.2647C243.961 57.5447 244.135 57.8447 244.241 58.1647C244.361 58.4713 244.421 58.8047 244.421 59.1647C244.421 59.6313 244.335 60.0513 244.161 60.4247C243.988 60.798 243.741 61.118 243.421 61.3847C243.101 61.6513 242.715 61.858 242.261 62.0047C241.821 62.1513 241.328 62.2247 240.781 62.2247C240.208 62.2247 239.675 62.1513 239.181 62.0047C238.688 61.8447 238.281 61.618 237.961 61.3247L237.521 62.0247Z" fill="#AD7F62"/>
</svg>
