<svg width="56" height="56" viewBox="0 0 56 56" fill="none" xmlns="http://www.w3.org/2000/svg">
<path d="M50.8769 0H5.12304C4.61762 0 4.20801 0.409719 4.20801 0.915031C4.20801 1.42034 4.61773 1.83006 5.12304 1.83006H50.8769C51.3824 1.83006 51.7919 1.42034 51.7919 0.915031C51.7919 0.409719 51.3824 0 50.8769 0Z" fill="#AD7F62"/>
<path d="M50.8769 6.10596H33.9951C34.1919 6.68324 34.3065 7.2976 34.3254 7.93613H50.8771C51.3827 7.93613 51.7922 7.52641 51.7922 7.0211C51.7922 6.51579 51.3825 6.10596 50.8769 6.10596Z" fill="#AD7F62"/>
<path d="M5.12304 6.10594C4.61773 6.10594 4.20801 6.51566 4.20801 7.02098C4.20801 7.52629 4.61773 7.93601 5.12304 7.93601H21.7893C21.8082 7.29748 21.9227 6.68312 22.1196 6.10583H5.12304V6.10594Z" fill="#AD7F62"/>
<path d="M5.12304 12.212C4.61773 12.212 4.20801 12.6217 4.20801 13.1271C4.20801 13.6324 4.61773 14.0421 5.12304 14.0421H16.9762C17.4279 13.3309 17.9953 12.7143 18.6479 12.2119H5.12304V12.212Z" fill="#AD7F62"/>
<path d="M50.8769 12.212H37.3521C38.0047 12.7144 38.5719 13.3309 39.0237 14.0422H50.8769C51.3825 14.0422 51.792 13.6325 51.792 13.1272C51.7921 12.6218 51.3825 12.212 50.8769 12.212Z" fill="#AD7F62"/>
<path d="M5.12304 18.3181C4.61773 18.3181 4.20801 18.7278 4.20801 19.2331C4.20801 19.7384 4.61773 20.1482 5.12304 20.1482H14.3677L15.1116 18.318H5.12304V18.3181Z" fill="#AD7F62"/>
<path d="M50.8767 18.3181H40.8882L41.632 20.1483H50.8767C51.3823 20.1483 51.7918 19.7386 51.7918 19.2333C51.7918 18.7279 51.3823 18.3181 50.8767 18.3181Z" fill="#AD7F62"/>
<path d="M50.877 24.4241H43.1329C43.0464 25.0805 42.8105 25.7068 42.4482 26.2542H50.8772C51.3828 26.2542 51.7923 25.8445 51.7923 25.3392C51.7923 24.8339 51.3825 24.4241 50.877 24.4241Z" fill="#AD7F62"/>
<path d="M12.8672 24.4241H5.12304C4.61773 24.4241 4.20801 24.8338 4.20801 25.3391C4.20801 25.8444 4.61773 26.2541 5.12304 26.2541H13.552C13.1898 25.7067 12.9537 25.0804 12.8672 24.4241Z" fill="#AD7F62"/>
<path d="M5.12304 30.5301C4.61773 30.5301 4.20801 30.9399 4.20801 31.4452C4.20801 31.9505 4.61773 32.3602 5.12304 32.3602H20.5051V30.53H5.12304V30.5301Z" fill="#AD7F62"/>
<path d="M50.8771 30.5302H35.5049V32.3603H50.8771C51.3826 32.3603 51.7921 31.9506 51.7921 31.4453C51.7921 30.94 51.3826 30.5302 50.8771 30.5302Z" fill="#AD7F62"/>
<path d="M5.12304 42.7422C4.61773 42.7422 4.20801 43.1519 4.20801 43.6572C4.20801 44.1625 4.61773 44.5722 5.12304 44.5722H20.5061V42.7421H5.12304V42.7422Z" fill="#AD7F62"/>
<path d="M50.8771 42.7422H35.5513V44.5724H50.8771C51.3826 44.5724 51.7921 44.1626 51.7921 43.6573C51.7921 43.152 51.3826 42.7422 50.8771 42.7422Z" fill="#AD7F62"/>
<path d="M5.12304 36.6362C4.61773 36.6362 4.20801 37.0459 4.20801 37.5513C4.20801 38.0566 4.61773 38.4663 5.12304 38.4663H20.5061V36.6362H5.12304Z" fill="#AD7F62"/>
<path d="M50.8771 36.6362H35.5513V38.4664H50.8771C51.3826 38.4664 51.7921 38.0567 51.7921 37.5514C51.7921 37.0461 51.3826 36.6362 50.8771 36.6362Z" fill="#AD7F62"/>
<path d="M33.648 30.2412L32.554 30.6196C30.9142 31.1869 29.1489 30.716 28 29.51C26.8584 30.7083 25.0959 31.1902 23.4461 30.6196L22.3618 30.2446L22.3628 53.443C22.3628 54.855 23.5076 55.9999 24.9197 55.9999C26.3317 55.9999 27.4765 54.855 27.4765 53.443C27.4765 52.24 27.4765 33.5316 27.4765 33.0056H28.5804C28.5804 33.5051 28.5804 52.9416 28.5804 53.443C28.5804 54.855 29.7252 55.9999 31.1374 55.9999C32.5463 55.9999 33.6944 54.8583 33.6944 53.443C33.6944 31.5313 33.648 30.2414 33.648 30.2412Z" fill="#AD7F62"/>
<path d="M40.8111 23.0591L37.9011 15.8997C37.0829 13.887 35.1507 12.5863 32.9778 12.5863H32.4607C31.3273 13.705 29.7718 14.3971 28.0573 14.3971C26.4114 14.3971 24.8361 13.7533 23.6539 12.5863H23.0222C20.8283 12.5863 18.9077 13.9099 18.0989 15.8997C17.5493 17.2519 15.7299 21.7285 15.189 23.0591C14.718 24.2177 15.3476 25.4881 16.4662 25.8749C17.3648 26.1858 22.8954 28.0994 24.1659 28.539C25.2787 28.9241 26.4916 28.3334 26.8762 27.2221C27.2609 26.11 26.6714 24.8966 25.5593 24.5118L19.9827 22.5823C21.0223 20.0242 21.523 18.7303 21.8102 18.0359C21.8624 17.9095 21.9968 17.8376 22.131 17.8644C22.2651 17.8911 22.3617 18.0089 22.3617 18.1456C22.3617 19.1631 22.3617 20.5893 22.3617 21.0757L24.1626 21.6988V18.859C24.1626 18.3576 24.569 17.9513 25.0703 17.9513H30.9295C31.4309 17.9513 31.8372 18.3577 31.8372 18.859V21.6988L33.6478 21.0723V18.0044C33.6478 17.9038 33.7181 17.8167 33.8166 17.7955C33.915 17.7743 34.0149 17.8248 34.0563 17.9166C34.3851 18.6446 34.9729 20.0128 36.0174 22.5823L30.4406 24.5118C29.3274 24.897 28.7401 26.1139 29.1236 27.2221C29.1267 27.231 29.1307 27.2394 29.1339 27.2482C29.5293 28.3446 30.7321 28.9204 31.834 28.539L39.5337 25.8749C40.6795 25.4787 41.2733 24.1961 40.8111 23.0591Z" fill="#AD7F62"/>
<path d="M28.0577 12.5403C30.4963 12.5403 32.4732 10.5633 32.4732 8.12468C32.4732 5.68603 30.4963 3.70911 28.0577 3.70911C25.619 3.70911 23.6421 5.68603 23.6421 8.12468C23.6421 10.5633 25.619 12.5403 28.0577 12.5403Z" fill="#AD7F62"/>
</svg>
