<svg width="56" height="56" viewBox="0 0 56 56" fill="none" xmlns="http://www.w3.org/2000/svg">
<g clip-path="url(#clip0_294_360)">
<path d="M32.3706 46.8081V52.0581C32.3706 52.5481 31.9769 52.9331 31.4956 52.9331H1.74561C1.26436 52.9331 0.870605 52.5481 0.870605 52.0581V46.8081C0.870605 43.4219 3.60936 40.6831 6.99561 40.6831H11.3706L13.9956 42.4331L16.6206 41.5581L19.2456 42.4331L21.8706 40.6831H26.2456C29.6319 40.6831 32.3706 43.4219 32.3706 46.8081Z" fill="#E6E9ED"/>
<path d="M26.2458 40.6831H23.6182C27.0044 40.6831 29.7432 43.4219 29.7432 46.8081V52.0581C29.7432 52.5481 29.3494 52.9331 28.8682 52.9331H31.4958C31.977 52.9331 32.3708 52.5481 32.3708 52.0581V46.8081C32.3708 43.4219 29.632 40.6831 26.2458 40.6831Z" fill="#CCD1D9"/>
<path d="M21.8706 36.7798V40.6832L19.2456 42.4332L16.6206 41.5582L13.9956 42.4332L11.3706 40.6832V36.7798C12.9456 37.5944 14.7306 38.0582 16.6206 38.0582C18.5106 38.0582 20.2956 37.5944 21.8706 36.7798Z" fill="#F5F7FA"/>
<path d="M7.87061 20.5581L5.24561 23.1831V18.8081C5.24561 13.006 9.94436 8.30811 15.7456 8.30811H22.7456V11.8081C25.6497 11.8081 27.9956 14.161 27.9956 17.0581V23.1831L25.3706 20.5581C25.3706 20.5581 21.3719 22.3081 16.6206 22.3081C11.8685 22.3081 7.87061 20.5581 7.87061 20.5581Z" fill="#965353"/>
<path d="M22.7456 14.4331C24.1929 14.4331 25.3706 15.6109 25.3706 17.0581V20.5581L27.9956 23.1831V17.0581C27.9956 14.161 25.6497 11.8081 22.7456 11.8081V8.30811H20.1206V11.8081C20.1206 13.258 21.2957 14.4331 22.7456 14.4331Z" fill="#AD7F62"/>
<path d="M27.9956 26.6831C27.9956 31.0756 25.5106 34.881 21.8706 36.7797C20.2956 37.5944 18.5106 38.0581 16.6206 38.0581C14.7306 38.0581 12.9456 37.5944 11.3706 36.7797C7.73061 34.881 5.24561 31.0747 5.24561 26.6831V23.1831L7.87061 20.5581C7.87061 20.5581 11.8685 22.3081 16.6206 22.3081C21.3719 22.3081 25.3706 20.5581 25.3706 20.5581L27.9956 23.1831V26.6831Z" fill="#EAC6BB"/>
<path d="M25.3704 20.5581L25.3678 20.559V26.6831C25.3678 31.0756 22.8828 34.881 19.2428 36.7797C18.0388 37.4027 16.7097 37.8157 15.3062 37.9776C15.7384 38.0284 16.1759 38.0581 16.6204 38.0581C18.5104 38.0581 20.2954 37.5944 21.8704 36.7797C25.5104 34.881 27.9954 31.0747 27.9954 26.6831V23.1831L25.3704 20.5581Z" fill="#D3B1A9"/>
<path d="M44.6294 10.0485C46.0819 10.0485 47.2544 11.221 47.2544 12.6735C47.2544 14.1172 46.0819 15.2985 44.6294 15.2985C43.1856 15.2985 42.0044 14.1172 42.0044 12.6735C42.0044 11.221 43.1848 10.0485 44.6294 10.0485Z" fill="#AD7F62"/>
<path d="M44.6294 15.2985C46.0819 15.2985 47.2544 14.1172 47.2544 12.6735C47.2544 11.221 46.0819 10.0485 44.6294 10.0485C43.1857 10.0485 42.0044 11.221 42.0044 12.6735C42.0044 14.1181 43.1848 15.2985 44.6294 15.2985ZM44.6382 8.30811C47.5957 8.30811 50.1769 10.0669 51.6382 12.6831C50.1769 15.3081 47.5957 17.0581 44.6382 17.0581C41.6719 17.0581 39.0907 15.3081 37.6382 12.6831C39.0907 10.0669 41.6719 8.30811 44.6382 8.30811Z" fill="#F5F7FA"/>
<path d="M55.1294 3.05811V22.3081H41.1294L36.7544 24.9331V22.3081H34.1294V3.05811H55.1294ZM51.6381 12.6831C50.1769 10.0669 47.5956 8.30811 44.6381 8.30811C41.6719 8.30811 39.0906 10.0669 37.6381 12.6831C39.0906 15.3081 41.6719 17.0581 44.6381 17.0581C47.5956 17.0581 50.1769 15.3081 51.6381 12.6831Z" fill="#AD7F62"/>
<path d="M54.2632 43.3256C54.2632 48.1643 50.3441 52.0756 45.5132 52.0756V52.0668C45.0232 52.0668 44.6382 52.4606 44.6382 52.9418C44.6382 52.4606 44.2444 52.0581 43.7544 52.0581V52.0756C38.9157 52.0668 35.0132 48.1643 35.0132 43.3256V31.0843C35.0219 32.5281 36.1857 33.7006 37.6382 33.7006H39.3882C42.2669 33.7006 44.5944 31.3906 44.6382 28.5381C44.6819 31.3915 47.0094 33.7006 49.8794 33.7006H51.6382C53.0907 33.7006 54.2632 32.5193 54.2632 31.0756V43.3256Z" fill="#AD7F62"/>
<path d="M51.6381 33.7006H49.8794C47.0094 33.7006 44.6819 31.3906 44.6381 28.5381C44.6373 28.5827 44.6311 28.6256 44.6294 28.6685V52.8998C44.6303 52.9147 44.6381 52.927 44.6381 52.9418C44.6381 52.4606 45.0231 52.0668 45.5131 52.0668V52.0756C50.344 52.0756 54.2631 48.1643 54.2631 43.3256V31.0756C54.2631 32.5193 53.0906 33.7006 51.6381 33.7006Z" fill="#AD7F62"/>
<path d="M44.636 17.934C41.4483 17.934 38.546 16.1297 36.8703 13.1084C36.7242 12.8441 36.7242 12.5239 36.8703 12.2596C38.5451 9.23736 41.4475 7.43311 44.636 7.43311C47.8236 7.43311 50.726 9.23736 52.4016 12.2587C52.5477 12.523 52.5477 12.8441 52.4007 13.1084C50.7251 16.1306 47.8218 17.934 44.636 17.934ZM38.6518 12.684C40.0387 14.8855 42.2437 16.184 44.636 16.184C47.0265 16.184 49.2323 14.8855 50.6201 12.684C49.2332 10.4825 47.0282 9.18398 44.636 9.18398C42.2428 9.18398 40.0378 10.4825 38.6518 12.684Z" fill="#AD7F62"/>
<path d="M44.6353 16.1699C42.705 16.1699 41.1353 14.6002 41.1353 12.6699C41.1353 10.7397 42.705 9.16992 44.6353 9.16992C46.5655 9.16992 48.1353 10.7397 48.1353 12.6699C48.1353 14.6002 46.5655 16.1699 44.6353 16.1699ZM44.6353 10.9199C43.6701 10.9199 42.8853 11.7048 42.8853 12.6699C42.8853 13.635 43.6701 14.4199 44.6353 14.4199C45.6004 14.4199 46.3853 13.635 46.3853 12.6699C46.3853 11.7048 45.5995 10.9199 44.6353 10.9199Z" fill="#AD7F62"/>
<path d="M32.373 47.6823C31.8892 47.6823 31.498 47.2911 31.498 46.8073C31.498 43.9119 29.1434 41.5573 26.248 41.5573C25.7642 41.5573 25.373 41.1661 25.373 40.6823C25.373 40.1984 25.7642 39.8073 26.248 39.8073C30.1077 39.8073 33.248 42.9476 33.248 46.8073C33.248 47.2911 32.8569 47.6823 32.373 47.6823Z" fill="#AD7F62"/>
<path d="M26.248 41.5573L21.873 41.5555C21.3892 41.5555 20.998 41.1635 20.998 40.6805C20.998 40.1967 21.39 39.8055 21.873 39.8055L26.248 39.8073C26.7319 39.8073 27.123 40.1993 27.123 40.6823C27.123 41.1662 26.731 41.5573 26.248 41.5573Z" fill="#AD7F62"/>
<path d="M1.74805 53.8073C0.782922 53.8073 -0.00195312 53.0224 -0.00195312 52.0573C-0.00195312 51.5734 0.389172 51.1823 0.873047 51.1823C1.35692 51.1823 1.74805 51.5734 1.74805 52.0573V52.059C2.23192 52.059 2.62305 52.4493 2.62305 52.9331C2.62305 53.4161 2.23192 53.8073 1.74805 53.8073Z" fill="#AD7F62"/>
<path d="M31.498 53.8073C31.0142 53.8073 30.623 53.4161 30.623 52.9323C30.623 52.4484 31.0142 52.0573 31.498 52.0573H31.4998C31.4998 51.5734 31.89 51.1823 32.3739 51.1823C32.8569 51.1823 33.248 51.5734 33.248 52.0573C33.248 53.0224 32.4632 53.8073 31.498 53.8073Z" fill="#AD7F62"/>
<path d="M32.373 52.9323C31.8892 52.9323 31.498 52.5411 31.498 52.0573V46.8073C31.498 46.3234 31.8892 45.9323 32.373 45.9323C32.8569 45.9323 33.248 46.3234 33.248 46.8073V52.0573C33.248 52.5411 32.8569 52.9323 32.373 52.9323Z" fill="#AD7F62"/>
<path d="M0.873047 47.6805C0.389172 47.6805 -0.00195312 47.2894 -0.00195312 46.8055C-0.00195312 42.9459 3.13842 39.8055 6.99805 39.8055C7.48192 39.8055 7.87305 40.1967 7.87305 40.6805C7.87305 41.1644 7.48192 41.5555 6.99805 41.5555C4.10267 41.5555 1.74805 43.9102 1.74805 46.8055C1.74805 47.2894 1.35692 47.6805 0.873047 47.6805Z" fill="#AD7F62"/>
<path d="M6.99805 41.5573C6.51505 41.5573 6.12305 41.1662 6.12305 40.6823C6.12305 40.1993 6.51417 39.8073 6.99805 39.8073L11.373 39.8055C11.856 39.8055 12.248 40.1967 12.248 40.6805C12.248 41.1635 11.8569 41.5555 11.373 41.5555L6.99805 41.5573Z" fill="#AD7F62"/>
<path d="M0.873047 52.9305C0.389172 52.9305 -0.00195312 52.5394 -0.00195312 52.0555V46.8055C-0.00195312 46.3217 0.389172 45.9305 0.873047 45.9305C1.35692 45.9305 1.74805 46.3217 1.74805 46.8055V52.0555C1.74805 52.5394 1.35692 52.9305 0.873047 52.9305Z" fill="#AD7F62"/>
<path d="M31.498 53.8073H1.74805C1.26417 53.8073 0.873047 53.4161 0.873047 52.9323C0.873047 52.4484 1.26417 52.0573 1.74805 52.0573H31.498C31.9819 52.0573 32.373 52.4484 32.373 52.9323C32.373 53.4161 31.9819 53.8073 31.498 53.8073Z" fill="#AD7F62"/>
<path d="M11.373 41.5555C10.8892 41.5555 10.498 41.1644 10.498 40.6805V36.7754C10.498 36.2915 10.8892 35.9004 11.373 35.9004C11.8569 35.9004 12.248 36.2915 12.248 36.7754V40.6805C12.248 41.1644 11.8569 41.5555 11.373 41.5555Z" fill="#AD7F62"/>
<path d="M21.873 41.5538C21.3892 41.5538 20.998 41.1626 20.998 40.6788V36.7754C20.998 36.2915 21.3892 35.9004 21.873 35.9004C22.3569 35.9004 22.748 36.2915 22.748 36.7754V40.6788C22.748 41.1626 22.3569 41.5538 21.873 41.5538Z" fill="#AD7F62"/>
<path d="M16.623 38.9323C9.86805 38.9323 4.37305 33.4373 4.37305 26.6823C4.37305 26.1984 4.76417 25.8073 5.24805 25.8073C5.73192 25.8073 6.12305 26.1984 6.12305 26.6823C6.12305 32.4721 10.8332 37.1823 16.623 37.1823C22.4129 37.1823 27.123 32.4721 27.123 26.6823C27.123 26.1984 27.5142 25.8073 27.998 25.8073C28.4819 25.8073 28.873 26.1984 28.873 26.6823C28.873 33.4373 23.378 38.9323 16.623 38.9323Z" fill="#AD7F62"/>
<path d="M5.24805 27.5573C4.76417 27.5573 4.37305 27.1661 4.37305 26.6823V18.8073C4.37305 18.3234 4.76417 17.9323 5.24805 17.9323C5.73192 17.9323 6.12305 18.3234 6.12305 18.8073V26.6823C6.12305 27.1661 5.73192 27.5573 5.24805 27.5573Z" fill="#AD7F62"/>
<path d="M27.998 27.5573C27.5142 27.5573 27.123 27.1661 27.123 26.6823V17.0573C27.123 16.5734 27.5142 16.1823 27.998 16.1823C28.4819 16.1823 28.873 16.5734 28.873 17.0573V26.6823C28.873 27.1661 28.4819 27.5573 27.998 27.5573Z" fill="#AD7F62"/>
<path d="M27.998 17.9323C27.5142 17.9323 27.123 17.5411 27.123 17.0573C27.123 14.6449 25.1604 12.6823 22.748 12.6823C22.2642 12.6823 21.873 12.2911 21.873 11.8073C21.873 11.3234 22.2642 10.9323 22.748 10.9323C26.1247 10.9323 28.873 13.6806 28.873 17.0573C28.873 17.5411 28.4819 17.9323 27.998 17.9323Z" fill="#AD7F62"/>
<path d="M22.748 12.6823C22.2642 12.6823 21.873 12.2911 21.873 11.8073V8.30725C21.873 7.82338 22.2642 7.43225 22.748 7.43225C23.2319 7.43225 23.623 7.82338 23.623 8.30725V11.8073C23.623 12.2911 23.2319 12.6823 22.748 12.6823Z" fill="#AD7F62"/>
<path d="M22.748 9.18225H15.748C15.2642 9.18225 14.873 8.79113 14.873 8.30725C14.873 7.82338 15.2642 7.43225 15.748 7.43225H22.748C23.2319 7.43225 23.623 7.82338 23.623 8.30725C23.623 8.79113 23.2319 9.18225 22.748 9.18225Z" fill="#AD7F62"/>
<path d="M5.24609 19.6823C4.76222 19.6823 4.37109 19.2911 4.37109 18.8073C4.37109 12.5352 9.47497 7.43225 15.7478 7.43225C16.2317 7.43225 16.6228 7.82338 16.6228 8.30725C16.6228 8.79113 16.2317 9.18225 15.7478 9.18225C10.4401 9.18225 6.12109 13.5004 6.12109 18.8073C6.12109 19.2911 5.72997 19.6823 5.24609 19.6823Z" fill="#AD7F62"/>
<path d="M27.9983 24.0572C27.7743 24.0572 27.5503 23.9715 27.3796 23.8009L24.7546 21.1759C24.4125 20.8337 24.4125 20.2807 24.7546 19.9386C25.0968 19.5965 25.6498 19.5965 25.9919 19.9386L28.6169 22.5636C28.959 22.9057 28.959 23.4587 28.6169 23.8009C28.4463 23.9715 28.2223 24.0572 27.9983 24.0572Z" fill="#AD7F62"/>
<path d="M16.623 23.1822C11.7449 23.1822 7.69278 21.4331 7.52216 21.3587C7.08028 21.1654 6.87903 20.6491 7.07153 20.2072C7.26403 19.7645 7.78116 19.5641 8.22303 19.7557C8.26153 19.7724 12.1238 21.4322 16.623 21.4322C21.1372 21.4322 24.9845 19.7724 25.023 19.7557C25.4658 19.5615 25.982 19.7645 26.1745 20.2072C26.3688 20.65 26.1667 21.1662 25.723 21.3587C25.5533 21.4331 21.4994 23.1822 16.623 23.1822Z" fill="#AD7F62"/>
<path d="M5.24631 24.0572C5.02231 24.0572 4.79831 23.9715 4.62769 23.8009C4.28556 23.4587 4.28556 22.9049 4.62769 22.5636L7.25444 19.9386C7.59656 19.5965 8.14956 19.5965 8.49169 19.9386C8.83381 20.2807 8.83381 20.8346 8.49169 21.1759L5.86494 23.8009C5.69431 23.9715 5.47031 24.0572 5.24631 24.0572Z" fill="#AD7F62"/>
<path d="M13.9972 43.3073C13.8309 43.3073 13.6612 43.2592 13.5124 43.1603L10.8874 41.4086C10.4849 41.1399 10.3764 40.5966 10.6451 40.1949C10.9137 39.7924 11.4571 39.6839 11.8587 39.9526L14.4837 41.7043C14.8862 41.9729 14.9947 42.5163 14.7261 42.9179C14.5572 43.1708 14.2798 43.3073 13.9972 43.3073Z" fill="#AD7F62"/>
<path d="M13.9983 43.3072C13.6325 43.3072 13.2904 43.0762 13.1688 42.7096C13.0148 42.252 13.2624 41.755 13.7209 41.6018L16.3459 40.7233C16.8035 40.5702 17.3005 40.8161 17.4537 41.2755C17.6077 41.7331 17.36 42.2301 16.9015 42.3832L14.2765 43.2617C14.1838 43.2932 14.091 43.3072 13.9983 43.3072Z" fill="#AD7F62"/>
<path d="M19.2489 43.3073C18.9663 43.3073 18.6889 43.1708 18.5201 42.9179C18.2514 42.5163 18.3599 41.9729 18.7624 41.7043L21.3874 39.9526C21.7882 39.6839 22.3316 39.7924 22.6011 40.1949C22.8697 40.5966 22.7612 41.1399 22.3587 41.4086L19.7337 43.1603C19.5849 43.2592 19.4152 43.3073 19.2489 43.3073Z" fill="#AD7F62"/>
<path d="M19.2482 43.3073C19.1563 43.3073 19.0627 43.2924 18.9708 43.2618L16.3458 42.3833C15.8882 42.2302 15.6397 41.734 15.7937 41.2755C15.9477 40.817 16.4438 40.5712 16.9014 40.7234L19.5264 41.6019C19.9841 41.755 20.2326 42.2512 20.0786 42.7097C19.9561 43.0754 19.6139 43.3073 19.2482 43.3073Z" fill="#AD7F62"/>
<path d="M16.6494 46.8073C16.1655 46.8073 15.77 46.4161 15.77 45.9323C15.77 45.4484 16.1568 45.0573 16.6398 45.0573H16.6494C17.1324 45.0573 17.5244 45.4484 17.5244 45.9323C17.5244 46.4161 17.1324 46.8073 16.6494 46.8073Z" fill="#AD7F62"/>
<path d="M16.6494 50.3073C16.1655 50.3073 15.77 49.9161 15.77 49.4323C15.77 48.9484 16.1568 48.5573 16.6398 48.5573H16.6494C17.1324 48.5573 17.5244 48.9484 17.5244 49.4323C17.5244 49.9161 17.1324 50.3073 16.6494 50.3073Z" fill="#AD7F62"/>
<path d="M36.7534 25.8055C36.6047 25.8055 36.4559 25.7678 36.3229 25.6917C36.0482 25.536 35.8784 25.2455 35.8784 24.9305V23.1805H34.1284C33.6445 23.1805 33.2534 22.7893 33.2534 22.3055V3.05896C33.2534 2.57509 33.6445 2.18396 34.1284 2.18396H55.1267C55.6105 2.18396 56.0017 2.57509 56.0017 3.05896V22.3055C56.0017 22.7893 55.6105 23.1805 55.1267 23.1805H41.369L37.2032 25.6803C37.0649 25.7635 36.91 25.8055 36.7534 25.8055ZM35.0034 21.4305H36.7534C37.2373 21.4305 37.6284 21.8216 37.6284 22.3055V23.3843L40.676 21.5547C40.8117 21.4725 40.9674 21.4296 41.1267 21.4296H54.2517V3.93396H35.0034V21.4305Z" fill="#AD7F62"/>
<path d="M37.6372 34.5695C35.707 34.5695 34.1372 32.9997 34.1372 31.0695C34.1372 30.5856 34.5283 30.1945 35.0122 30.1945C35.4961 30.1945 35.8872 30.5856 35.8872 31.0695C35.8872 32.0346 36.6721 32.8195 37.6372 32.8195C38.1211 32.8195 38.5122 33.2106 38.5122 33.6945C38.5122 34.1783 38.1202 34.5695 37.6372 34.5695Z" fill="#AD7F62"/>
<path d="M35.0137 44.198C34.5298 44.198 34.1387 43.8068 34.1387 43.323V31.08C34.1387 30.5961 34.5298 30.205 35.0137 30.205C35.4975 30.205 35.8887 30.5961 35.8887 31.08V43.323C35.8887 43.806 35.4967 44.198 35.0137 44.198Z" fill="#AD7F62"/>
<path d="M49.8833 34.5712C46.5067 34.5712 43.7583 31.8228 43.7583 28.4462C43.7583 27.9623 44.1494 27.5712 44.6333 27.5712C45.1172 27.5712 45.5083 27.9623 45.5083 28.4462C45.5083 30.8585 47.4709 32.8212 49.8833 32.8212C50.3672 32.8212 50.7583 33.2123 50.7583 33.6962C50.7583 34.18 50.3672 34.5712 49.8833 34.5712Z" fill="#AD7F62"/>
<path d="M51.6387 34.5695C51.1548 34.5695 50.7637 34.1783 50.7637 33.6945C50.7637 33.2106 51.1548 32.8195 51.6387 32.8195C52.6038 32.8195 53.3887 32.0346 53.3887 31.0695C53.3887 30.5856 53.7798 30.1945 54.2637 30.1945C54.7475 30.1945 55.1387 30.5856 55.1387 31.0695C55.1387 32.9997 53.5689 34.5695 51.6387 34.5695Z" fill="#AD7F62"/>
<path d="M54.2622 44.198C53.7783 44.198 53.3872 43.8068 53.3872 43.323V31.0695C53.3872 30.5856 53.7783 30.1945 54.2622 30.1945C54.7461 30.1945 55.1372 30.5856 55.1372 31.0695V43.323C55.1372 43.806 54.7452 44.198 54.2622 44.198Z" fill="#AD7F62"/>
<path d="M44.6372 53.8159C44.1533 53.8159 43.7622 53.4248 43.7622 52.9409C43.7622 51.9758 44.5471 51.1909 45.5122 51.1909C45.9961 51.1909 46.3872 51.582 46.3872 52.0659C46.3872 52.5498 45.9961 52.9409 45.5122 52.9409C45.5122 53.4248 45.1202 53.8159 44.6372 53.8159Z" fill="#AD7F62"/>
<path d="M44.6368 53.816C44.1529 53.816 43.7618 53.4248 43.7618 52.941C43.7618 52.9392 43.7618 52.9383 43.7618 52.9383C43.2779 52.9383 42.8833 52.5446 42.8833 52.0616C42.8833 51.5777 43.2709 51.184 43.7548 51.184C44.7234 51.184 45.5118 51.9715 45.5118 52.941C45.5118 53.4248 45.1198 53.816 44.6368 53.816Z" fill="#AD7F62"/>
<path d="M45.5122 52.948C45.0283 52.948 44.6372 52.5569 44.6372 52.073C44.6372 51.5891 45.0283 51.198 45.5122 51.198C49.8548 51.198 53.3872 47.6656 53.3872 43.323C53.3872 42.8391 53.7783 42.448 54.2622 42.448C54.7461 42.448 55.1372 42.8391 55.1372 43.323C55.1372 48.6299 50.8191 52.948 45.5122 52.948Z" fill="#AD7F62"/>
<path d="M39.3931 34.5712C38.9092 34.5712 38.5181 34.18 38.5181 33.6962C38.5181 33.2123 38.9092 32.8212 39.3931 32.8212C41.8054 32.8212 43.7681 30.8585 43.7681 28.4462C43.7681 27.9623 44.1592 27.5712 44.6431 27.5712C45.1269 27.5712 45.5181 27.9623 45.5181 28.4462C45.5181 31.8228 42.7706 34.5712 39.3931 34.5712Z" fill="#AD7F62"/>
<path d="M43.7639 52.9462C38.4579 52.9462 34.1406 48.629 34.1406 43.323C34.1406 42.8391 34.5317 42.448 35.0156 42.448C35.4995 42.448 35.8906 42.8391 35.8906 43.323C35.8906 47.6647 39.4221 51.1962 43.7639 51.1962C44.2477 51.1962 44.6389 51.5874 44.6389 52.0712C44.6389 52.5551 44.2469 52.9462 43.7639 52.9462Z" fill="#AD7F62"/>
<path d="M39.3932 34.5695H37.6362C37.1524 34.5695 36.7612 34.1783 36.7612 33.6945C36.7612 33.2106 37.1524 32.8195 37.6362 32.8195H39.3932C39.8771 32.8195 40.2682 33.2106 40.2682 33.6945C40.2682 34.1783 39.8771 34.5695 39.3932 34.5695Z" fill="#AD7F62"/>
<path d="M51.6386 34.5712H49.8833C49.3994 34.5712 49.0083 34.18 49.0083 33.6962C49.0083 33.2123 49.3994 32.8212 49.8833 32.8212H51.6386C52.1224 32.8212 52.5136 33.2123 52.5136 33.6962C52.5136 34.18 52.1216 34.5712 51.6386 34.5712Z" fill="#AD7F62"/>
<path d="M44.6274 46.8072C44.1436 46.8072 43.7524 46.4161 43.7524 45.9322V37.3651C43.7524 36.8812 44.1436 36.4901 44.6274 36.4901C45.1113 36.4901 45.5024 36.8812 45.5024 37.3651V45.9322C45.5024 46.4161 45.1113 46.8072 44.6274 46.8072Z" fill="#AD7F62"/>
</g>
<defs>
<clipPath id="clip0_294_360">
<rect width="56" height="56" fill="white"/>
</clipPath>
</defs>
</svg>
